<?xml version="1.0" encoding="utf-8"?>
<!-- Generator: Adobe Illustrator 26.3.1, SVG Export Plug-In . SVG Version: 6.00 Build 0)  -->
<svg version="1.1" id="Capa_1" xmlns="http://www.w3.org/2000/svg" xmlns:xlink="http://www.w3.org/1999/xlink" x="0px" y="0px"
	 viewBox="0 0 200 200" style="enable-background:new 0 0 200 200;" xml:space="preserve">
<style type="text/css">
	.st0{fill:#FFFFFF;stroke:#000000;stroke-width:1.428;stroke-miterlimit:10;}
	.st1{fill:#B42119;}
</style>
<circle class="st0" cx="100.9" cy="99.6" r="88.9"/>
<path class="st1" d="M0,102.2v-8.3c0.4-0.4,0.6-0.9,0.6-1.5c1.3-20.1,8.8-39.2,21.6-54.8c14.5-18.4,35.2-31,58.2-35.4
	c4.5-0.9,9-1.5,13.6-2.2h8.3c0.6,0.6,1.4,0.4,2.1,0.4c4.6,0.1,9.2,0.5,13.8,1.4c45,8.4,78.6,46,81.5,91.4c0.1,1.5-0.4,3.1,0.5,4.6
	v8.3c-0.7,0.6-0.5,1.3-0.6,2c-0.6,9.5-2.7,18.9-6.3,27.7c-14.4,34.6-40,55.6-77,62.6c-3.3,0.6-6.8,0.3-10,1.5h-8.4
	c-0.4-0.5-1-0.4-1.5-0.4c-6.3-0.1-12.5-0.9-18.6-2.3C37.7,188.6,5.7,153.4,1,112.9C0.6,109.3,1,105.7,0,102.2z M99.9,54.8L99.9,54.8
	c-12.5,0-24.9,0.1-37.4-0.1c-2.6,0-3.2,0.8-3.1,3.3c0.1,8.1,0.2,16.3,0,24.4c-0.2,2.1,0.9,4.1,2.8,5.2c9.1,6.3,18.2,12.7,27.2,19.2
	c1.4,1,2.3,1.1,3.8,0c4.7-3.5,9.2-3.5,13.8-0.1c1.5,1.1,2.4,1,3.8,0c9.3-6.7,18.7-13.3,28.1-19.9c1.2-0.7,1.8-2.1,1.7-3.5
	c-0.1-8.5-0.1-17,0-25.5c0-2.4-0.5-3.2-3-3.1C125,54.9,112.5,54.8,99.9,54.8z M41.3,150.3h116.6c0-0.8-0.6-1-1-1.4
	c-17.5-13.2-35-26.3-52.6-39.4c-3-2.2-6-2-9.2,0.3l-49.9,37.4C44.2,148.1,43,149,41.3,150.3L41.3,150.3z M41.1,76.9v69
	c0.3-0.1,0.7-0.2,1-0.4c15-11.2,30-22.5,45.1-33.7c1.7-1.3,1.1-1.8-0.2-2.7c-7.8-5.4-15.6-11-23.3-16.5
	C56.2,87.4,48.8,82.2,41.1,76.9z M158.9,146.2V77c-0.3,0.1-0.7,0.3-1,0.4C143,88,128.1,98.6,113.1,109.1c-2.3,1.6-0.9,2.1,0.3,3
	c10.6,7.9,21.2,15.8,31.7,23.8C149.6,139.3,154.1,142.6,158.9,146.2z M124.8,51.4l0.2-0.5c-7-5.3-14-10.6-21-15.8
	c-2.7-1.9-5.6-1.7-8.5,0.5c-6.4,4.8-12.8,9.5-19.1,14.4c-0.4,0.3-1.2,0.5-1,1.5L124.8,51.4z M56,65.2c-4,3-7.7,5.8-11.4,8.4
	c-0.9,0.7-0.7,1.1,0.1,1.6c3.7,2.6,7.3,5.2,11.3,8V65.2z M144,65.2v18.1l11.3-8c0.6-0.4,1.1-0.8,0.2-1.4L144,65.2z"/>
<path class="st1" d="M104.1,86.7c-1.2,1.2-2.4,2.3-3.7,3.3c-4.7,3.1-9.9,0.7-10.5-4.7c-1-9.6,9.3-17.4,18.3-13.9
	c1.3,0.5,1.3,1.3,1.1,2.4c-0.6,3.2-1.3,6.3-1.8,9.5c-0.3,1.8-1.1,4.3,1.3,5.1s3.9-1.1,5-3c3-5,2-13.2-2-17.3
	c-4.3-4.5-12.1-5.3-18.3-1.8c-8.2,4.5-11.6,17.3-6.8,25.3c3.7,6.1,11,8.4,18.8,5.9c0.9-0.3,2.2-1.8,2.8,0.4c0.5,1.9-1.2,1.8-2.1,2.2
	c-7.4,2.7-15.9,0.9-20.5-4.3c-5.1-5.8-5.9-15.2-2.1-22.9c5.8-11.8,19.7-13.5,27.6-9s10.2,17.7,4,24.5c-2,2.3-5,3.3-8,2.8
	C104.8,90.8,104.6,88.9,104.1,86.7z M93.8,83.7c-0.1,1.9,0.3,3.6,2.2,4.4s3.4,0.1,4.8-1.1c1-0.9,1.9-2,2.5-3.3
	c1.2-2.3,1.3-5,1.9-7.5c0.5-1.9-0.3-2.2-1.9-2.3C98.3,73.6,93.8,78.2,93.8,83.7L93.8,83.7z"/>
</svg>
