<?xml version="1.0" encoding="utf-8"?>
<!-- Generator: Adobe Illustrator 26.3.1, SVG Export Plug-In . SVG Version: 6.00 Build 0)  -->
<svg version="1.1" id="Capa_1" xmlns="http://www.w3.org/2000/svg" xmlns:xlink="http://www.w3.org/1999/xlink" x="0px" y="0px"
	 viewBox="0 0 200 200" style="enable-background:new 0 0 200 200;" xml:space="preserve">
<style type="text/css">
	.st0{fill:#EAEAEA;stroke:#000000;stroke-miterlimit:10;}
	.st1{fill:url(#SVGID_1_);}
</style>
<circle class="st0" cx="100" cy="100" r="94"/>
<linearGradient id="SVGID_1_" gradientUnits="userSpaceOnUse" x1="29.2251" y1="29.1711" x2="170.6671" y2="170.6031" gradientTransform="matrix(1 0 0 -1 0 199.89)">
	<stop  offset="0" style="stop-color:#5A2A6D"/>
	<stop  offset="1" style="stop-color:#B83FEA"/>
</linearGradient>
<path class="st1" d="M104.2,200h-8.4c-0.2-0.1-0.5-0.2-0.7-0.1c-4.8-0.2-9.7-0.8-14.4-1.7c-10.8-2.1-21.1-6-30.6-11.5
	C15.7,166.8-3.7,128.6,0.6,89.1c1.1-10.5,3.9-20.8,8.3-30.5C24.3,24.5,57.6,1.9,95.1,0.1c6.3-0.3,12.7,0,19,0.9
	c8.9,1.2,17.7,3.7,25.9,7.4c14.5,6.4,27.4,16.1,37.4,28.4c6,7.3,10.9,15.4,14.6,24.1c3.9,9,6.3,18.5,7.3,28.2
	c0.2,2.2,0.4,4.5,0.6,6.7v8.4c-0.2,0.5-0.2,1-0.2,1.5c-0.2,4.6-0.8,9.1-1.7,13.6c-6.8,34-30.6,62.1-63,74.3
	c-8.5,3.2-17.5,5.3-26.6,6C107.1,199.6,105.6,199.8,104.2,200z M116.9,147.8c6.1,4.4,8.1,10.5,8,17.4v14.9c0.3-0.1,0.5-0.1,0.7-0.2
	c30.3-9.8,52.5-35.8,57.4-67.3c3.8-24.9-3.8-50.2-20.6-68.9C142.7,21.9,113,12,84.2,17.5c-11.8,2.2-23,7-32.8,14
	C31.8,45.7,20.2,64.8,16.7,88.8c-1.3,9.4-1,19,1,28.2c6.2,29.8,28,53.9,57,63.1c1.3,0.4,1.3,0.4,1.3-1c0.1-5.5-0.2-11,0.1-16.6
	c0.1-4.9,2.2-9.6,5.8-13c0.6-0.5,1.2-1,1.9-1.7c-3.2-0.3-6.2-0.8-9.2-1.3c-3-0.6-5.9-1.5-8.8-2.5c-11.8-4.1-20-11.8-23.9-23.7
	c-2-6.3-3-12.8-2.9-19.3c-0.1-9.8,2.7-18.5,9.3-25.9c0.4-0.4,0.5-1,0.3-1.5c-1.1-2.9-1.7-6-1.8-9.1c-0.1-5,0.8-9.9,2.6-14.6
	c0.2-0.7,0.9-1.2,1.6-1.2c3.1-0.1,6.1,0.4,9,1.5c5.3,2,10.4,4.6,15.1,7.9c0.7,0.5,1.6,0.7,2.5,0.4c2.4-0.7,4.9-1.3,7.3-1.7
	c12.8-2.1,25.9-1.6,38.4,1.7c0.7,0.2,1.5,0.1,2.1-0.4c5.1-3.5,10.6-6.3,16.5-8.3c2.6-0.8,5.2-1.5,7.9-1c0.6,0,1.1,0.4,1.2,1
	c0.3,1.1,0.7,2.1,1.1,3.2c2.2,6.5,2.2,13.5,0.1,20.1c-0.4,0.9-0.2,1.9,0.6,2.6c3.8,4.3,6.5,9.4,7.7,15c2,9.1,1.3,18.2-1.1,27.1
	c-3.3,12.5-11,21-23.1,25.6C130.2,145.9,123.6,147.3,116.9,147.8L116.9,147.8z"/>
</svg>
