<?xml version="1.0" encoding="utf-8"?>
<!-- Generator: Adobe Illustrator 26.3.1, SVG Export Plug-In . SVG Version: 6.00 Build 0)  -->
<svg version="1.1" id="Capa_1" xmlns="http://www.w3.org/2000/svg" xmlns:xlink="http://www.w3.org/1999/xlink" x="0px" y="0px"
	 viewBox="0 0 360.5 380.2" style="enable-background:new 0 0 360.5 380.2;" xml:space="preserve">
<g>
	<path d="M360.4,232.8c0.3,8.3-0.1,16.6-2.1,24.8c-2.1,7.1-3.6,14.4-6.5,21.2c-5.4,12.7-12.6,24.3-22,34.5
		c-23.8,25.8-53.9,40.4-86.8,50.6c-15.5,4.8-31.3,8.3-47.3,10.9c-6.1,1-12.2,2.6-18.5,2c-1.4-0.1-3.4,0.7-3.8-1.8
		c4.9-4.2,11-6.1,16.6-9.1c22-11.6,43-24.7,61.3-41.7c14.2-13.2,26.2-28,32.3-46.9c1.5-4.5,2.3-9.2,3-13.9c0.2-1.4,1.1-2,2.3-2.6
		c22.1-9.5,44-19.3,66.1-28.9C356.8,231.3,359.2,228.9,360.4,232.8z"/>
	<path d="M143.4,68.9c-0.3,1.1-0.6,2.1-1,3.5c6.1,1.7,12.5,1.4,18.5,3.2c-7.6,5.4-16.5,8.1-24.9,11.8
		c-26.6,11.9-53.3,23.5-79.9,35.2c-12.1,5.3-23.9,11.1-36.3,15.6c-0.4,0-0.8,0-1.1-0.2c-6-5.2-12.7-9.8-16.5-17.2
		c-0.5-1-0.6-2.1-1-3.1c0-0.1-0.2-0.2-0.3-0.2c-0.1,0-0.2,0.1-0.3,0.2c-1.9-7.2,0.6-13.3,4.8-18.9c2.5-3.3,5.6-5.8,9.4-7.6
		c6.7-0.9,12.3-4.5,18.3-7.1C59,72.9,84.7,61.5,110.4,50.2c13.9-6.1,27.8-12.2,41.7-18.3c2-0.9,3.9-2.3,6.3-1.3
		c1,1.8-0.3,3.1-0.9,4.5c-4.4,10.2-9.8,19.9-13.5,30.4C143.6,66.5,142.9,67.6,143.4,68.9z"/>
	<path d="M19.4,137.8c17.8-7.8,35.5-15.5,53.3-23.3c13.4-5.9,26.8-11.9,40.2-17.8c13.2-5.8,26.4-11.6,39.7-17.2
		c2.8-1.2,4.9-3.9,8.3-3.8c13.4,1.6,26.6,4.7,39.7,7.9c4.8,1.2,9.7,2.1,14.3,4c-5,3.9-11.1,5.6-16.7,8.1
		c-38.7,17.1-77.4,34.1-116.2,51.1c-10.6,4.7-21.2,9.3-31.8,14c-1.4,0.6-2.7,1.2-4.2,1.5c-2.5-0.2-4.1-2-5.6-3.5
		c-6.3-6.4-13.6-11.7-19.9-18.1C19.9,139.7,18.9,139.1,19.4,137.8z"/>
	<path d="M250.7,99.6c9.3,3.2,18.2,7.3,26.8,12c-0.1,2.4-2.1,2.9-3.8,3.6c-11,4.8-21.9,9.6-32.8,14.4
		c-23.6,10.3-47.2,20.8-70.8,31.1c-2.2,0.9-4.1,2.4-6.3,3.2c-6.3,1.1-12.6-0.8-18.9-0.4c-1.8,0.1-3.7,0.2-5.6,0
		c-2.9-0.3-5.1,0.6-6.1,3.5c0,1,0,1.9-0.1,2.9c-5.5,3.7-11.9,5.6-17.9,8.4c-10.9,5-21.9,9.5-32.8,14.6c-0.9,0.4-1.8,0.8-2.8,0.8
		c-5.2-1.9-8.2-6.5-12.1-9.9c-0.7-0.9-1.7-1.7-1-3c7.1-4,14.6-6.9,22-10.1c26.5-11.7,53.1-23.4,79.7-35.1
		c22.9-10.1,45.8-20.3,68.8-30.2C241.6,103.6,246,101.1,250.7,99.6z"/>
	<path d="M164.6,163.2c3.4-3.6,8.2-4.5,12.4-6.5c14-6.4,28.2-12.5,42.3-18.6c15.2-6.7,30.6-13.2,45.7-20c4.2-1.9,9-2.9,12.5-6.5
		c9.9,4.8,19.3,10.3,27.9,17.1c-0.7,2.3-2.9,3-4.8,3.8c-18.9,8.2-37.8,16.6-56.7,24.9c-10.9,4.8-22,9.3-32.6,14.7
		c-7.5-1-15-2.7-22.4-4.3c-6.9-1.1-13.8-1.8-20.6-2.7C166.9,164.9,165.3,164.9,164.6,163.2z"/>
	<path d="M211.7,171.5c2.8-3.3,7.1-4,10.7-5.7c19.2-8.6,38.5-16.7,57.7-25.3c8.5-3.8,17.4-6.8,25.3-11.8c8.8,6,16.8,12.8,23.6,21.1
		c-0.6,1.1-1.6,1.5-2.6,2c-20.8,9-41.6,18.2-62.3,27.4c-5.7,2.5-11.5,4.8-17.1,7.6c-1.7,0.2-3.1-0.7-4.5-1.5
		c-4.5-2.4-9.2-4.5-13.9-6.5c-4.5-2.1-9.2-3.6-13.9-5.2C213.5,173.2,211.8,173.4,211.7,171.5z"/>
	<path d="M250.7,99.6c-3.2,3.4-7.8,4.4-11.8,6.2c-20.3,9.1-40.7,18-61,26.9c-21.4,9.4-42.8,18.7-64.2,28
		c-15.1,6.6-30.2,13.3-45.3,20c-0.6,0.2-1.2,0.4-1.8,0.5c-4.5-2.3-8.9-4.8-10.5-10.1c3.3-2.8,7.5-3.9,11.3-5.5
		c27.7-12.2,55.4-24.4,83.1-36.5c26.3-11.6,52.7-23,78.9-34.8c1.6-0.7,3.2-1.4,5-0.7C239.7,95.6,245.2,97.6,250.7,99.6z"/>
	<path d="M234.3,93.6c-4.2,0.5-7.6,3-11.3,4.6c-18.5,7.9-36.9,16.1-55.3,24.2c-17.6,7.8-35.2,15.6-52.8,23.4
		c-19.6,8.6-39.2,17.1-58.8,25.6c-4.6-2.1-8.6-4.7-10.5-9.7c15.5-6.8,31-13.5,46.4-20.3c13.2-5.8,26.4-11.7,39.6-17.5
		c15.8-6.9,31.7-13.8,47.5-20.8c11.2-5,22.4-10.1,33.6-15.2c0.7-0.3,1.4-0.3,2.2-0.4C221.5,89.1,228,91,234.3,93.6z"/>
	<path d="M158.6,30.8c-6.4,1.2-12,4.6-17.9,7.2c-18.2,7.8-36.2,15.8-54.3,23.7C71,68.4,55.7,75.2,40.4,82c-6.8,3-13.6,6.1-20.5,9
		c-1.5,0.6-3.3,2.2-5.1,0.2c13-8.2,26-16.5,39.1-24.7c32.4-20.3,64.8-40.6,97.1-60.8c3.5-2.2,7-4.3,11.1-5.3c6.2-1.5,9.3,1.8,7.7,8
		c-1.4,0.2-0.7,1.4-1,2.2c-2.5,6.5-5.9,12.5-8.7,18.8C159.9,30,159.4,30.6,158.6,30.8z"/>
	<path d="M246.9,186.4c0.8-1.6,2.5-2,3.9-2.7c17.7-7.8,35.5-15.6,53.2-23.3c8.3-3.6,16.7-7.1,25-10.7c6.3,7.2,12.6,14.4,16.5,23.2
		c-1.5,2.5-4.3,2.9-6.6,3.9c-21.7,9.4-43.3,19.1-65,28.5c-1.1,0.5-2.2,1.1-3.5,1.1c-1.5-0.1-2.5-1.1-3.4-2.1
		c-5.6-5.8-11.4-11.3-18.3-15.5C247.8,188.4,246.6,187.9,246.9,186.4z"/>
	<path d="M270.1,205.9c8.9-3.8,17.8-7.6,26.7-11.5c16.3-7.1,32.5-14.3,48.8-21.4c5,8.7,8.2,18,10.5,27.7c-0.5,1.1-1.4,1.7-2.4,2.2
		c-21.8,9.7-43.7,19.3-65.6,28.8c-1.1,0.5-2.3,1-3.6,0.9c-1.4-0.2-1.6-1.5-1.9-2.5c-2.8-7.5-6.6-14.4-11.3-20.8
		C270.3,208.3,269.5,207.3,270.1,205.9z"/>
	<path d="M284.3,232.1c23.9-10.5,47.8-20.9,71.7-31.4c2.5,10.6,4.6,21.2,4.4,32.1c-1.4-2.2-3.1-0.8-4.5-0.2
		c-8.7,3.7-17.3,7.7-25.9,11.4c-14,6.1-27.7,12.7-42,18.2c-0.5,0.2-0.9,0.8-1.3,1.3c0.1-0.8,0.2-1.6,0.3-2.4
		c0.3-9-0.3-17.9-3.1-26.6C283.6,233.6,283.6,232.8,284.3,232.1z"/>
	<path d="M79.3,193.1c8.3-3.6,16.6-7.3,24.8-10.9c9-4,17.9-7.9,26.9-11.9c0.7-0.3,1.4-0.3,2.2-0.4c2.2,9.2,4.4,18.4,6.6,27.7
		c-9.9,3.4-19.3,8.1-28.9,12.2c-3.2,1.4-6.3,3.1-9.6,4c-0.9,0-1.7-0.4-2.3-1c-6.3-6-12.7-11.8-19-17.7
		C79.3,194.6,78.9,194,79.3,193.1z"/>
	<path d="M101,213.4c11.9-5.3,23.8-10.6,35.6-16c1.2-0.5,2.1-0.4,3.1,0.2c2.2,8.7,4.7,17.3,6.2,26.2c-3.6,2.4-7.8,3.7-11.7,5.5
		c-3.5,1.6-7,3.1-10.4,4.7c-1.3,0.1-2.5-0.4-3.4-1.3c-5.8-5.6-12.1-10.7-17.8-16.4C102.2,215.3,100.6,214.8,101,213.4z"/>
	<path d="M173.5,374.9c4.6,1.7,9.2,0.7,13.8,0.1c16.1-2.2,32-5.5,47.6-9.8c23.4-6.4,45.9-15.2,66.1-28.7
		c20.9-13.9,38.1-31.5,48.6-54.8c3.5-7.8,6.2-15.9,8-24.4c0-0.2,0.2-0.4,0.3-0.6c0.2,0.3,0.3,0.5,0.5,0.8
		c-1.9,14.1-7,27.1-14.2,39.4c-13.9,23.7-34.4,40.4-58.3,53.1c-25.4,13.4-52.7,21.3-80.8,26.5c-9,1.7-18.1,3.7-27.3,3.7
		c-1,0-2,0.1-3-0.2c-1.3-0.3-2.9-0.4-3.3-2C171.1,376.5,172.3,375.6,173.5,374.9z"/>
	<path d="M123.4,233.6c7.2-3.9,14.6-7.4,22.5-9.7c1.8,6.6,4.1,13.1,4.7,20c0.1,1.3,0.5,2.7-0.2,4c-4.1,3.5-5.9,3.8-10.6,1.2
		c-6.1-3.4-11.1-8.3-15.8-13.4C123.4,235,123,234.4,123.4,233.6z"/>
	<path d="M284.3,232.1c1.7,8.6,3.7,17.2,3,26.1c-0.1,1-0.2,2-0.3,2.9c0.4-18.9-5.3-35.7-17.3-50.4c-10.6-13-24.5-21.4-39.8-28
		c-1.1-0.5-2.2-1.1-3.3-1.6c-0.9-2.2,0.6-2.6,2.2-2.9c6.4,1.9,12,5.4,18,8.2c8.6,5.4,15.9,12.4,23.2,19.5c2.1,3.2,4.1,6.4,6.3,9.6
		C279.9,220.6,281.7,226.5,284.3,232.1z"/>
	<path d="M164.6,163.2c5.3,1.4,10.8,1.1,16.1,2.3c2.9,0.6,5.9,0.2,8.6,1.5c-1.7,1.5-3.9,2.2-6,3c-11.1-1.1-22.2-2.5-33.3-2.7
		c-5.6-0.1-11.2-0.1-16.7-0.2c-0.8-3.9,0.9-4.7,4.6-4.7C146.8,162.2,155.6,163.5,164.6,163.2z"/>
	<path d="M123.4,233.6c4.3,5.3,9.5,9.7,15,13.7c5,3.5,6.8,3.3,11.3-0.2c0.6-0.5,0.5,0.5,0.7,0.8c-0.4,5.8-3.4,7.8-8.7,5.7
		c-3.4-1.3-6.2-3.6-8.9-6.1c-10.5-9.5-20.8-19.1-31.2-28.7c-0.3-0.2-0.4-0.6-0.6-0.9c-0.2-1.7,0.6-2.4,2.3-2.3
		C109.8,221.7,116,228.3,123.4,233.6z"/>
	<path d="M45.6,161.7c2.8,4,6.9,6.6,10.5,9.7c2.8,3.9,7,6.5,10.5,9.7c0.5,0.7,1,1.5,1.5,2.2c-0.8,1.1-2,0.8-3.1,1
		c-12.8-11.7-25.6-23.4-38.3-35.2c-2.4-2.3-5.4-4-7.2-6.8c-0.7-1.6-0.2-2.4,1.5-2.3c5.4,4.7,10.8,9.4,16,14.2
		C39.7,156.9,42.6,159.4,45.6,161.7z"/>
	<path d="M183.3,170c1.5-2,3.6-2.8,6-3c7.5,1.5,15,3,22.4,4.5c4.9,1.8,9.8,3.5,14.7,5.3c0.9,0.3,1.9,0.6,2.5,1.5
		c-0.7,1-2.4,1.3-2.2,2.9c-11.1-3.9-22.4-7.2-34-9.3C189.5,171.2,186.3,171.2,183.3,170z"/>
	<path d="M64.9,184.4c0.7-1.3,2-0.9,3.1-1c3.9,3,6.9,7.2,11.2,9.7c7.2,6.7,14.5,13.5,21.7,20.2c0.7,0.7,1.5,1.5,2.2,2.2
		c-1,0.5-1.8,1.3-2.3,2.3C88.9,206.7,76.9,195.6,64.9,184.4z"/>
	<path d="M158.6,30.8c3.2-7.8,7.5-15,10.4-23c0.1-0.2-0.2-1.7,0.8-0.5c0.2,0.2,0.1,0.7,0.1,1.1c0,3.2-1.4,6-2.7,8.8
		c-7.8,17.3-16.5,34.2-23.7,51.7c-2.1-0.5-1-1.8-0.6-2.9C147.1,53.9,153.1,42.5,158.6,30.8z"/>
	<path d="M20.9,140c-1,0.4-1.5,1.2-1.5,2.3c-4.7-4.2-9.7-8.1-13.6-13c-2.7-3.4-4.9-7.1-5.1-11.6c0.1-0.5,0.1-1,0.2-1.5
		c3.1,9.8,11.8,14.9,18.6,21.5C19.9,138.5,20.4,139.3,20.9,140z"/>
</g>
</svg>
