<?xml version="1.0" encoding="utf-8"?>
<!-- Generator: Adobe Illustrator 26.3.1, SVG Export Plug-In . SVG Version: 6.00 Build 0)  -->
<svg version="1.1" id="Capa_1" xmlns="http://www.w3.org/2000/svg" xmlns:xlink="http://www.w3.org/1999/xlink" x="0px" y="0px"
	 viewBox="0 0 504.9 505.2" style="enable-background:new 0 0 504.9 505.2;" xml:space="preserve">
<style type="text/css">
	.st0{fill:#FFFFFF;}
</style>
<circle cx="256.8" cy="265.1" r="211.2"/>
<path class="st0" d="M504.9,253c0.2,137-110.1,250.1-248.4,252.1C112.4,507.2-0.2,390.5,0,253C0.2,113.7,112.7,0.1,251.2,0
	C393.9-0.2,505.6,115.4,504.9,253z M54.6,253c18.2,0,35.5,0.2,52.7-0.1c4.6-0.1,5.8,1.1,5.8,5.8c-0.2,47.2-0.1,94.5-0.1,141.8
	c0,10.4,5.7,15.9,16.1,15.9c25.1,0,50.2-0.1,75.4,0.1c4.4,0,5.8-0.9,5.8-5.6c-0.2-34.6-0.1-69.2-0.1-103.8c0-9.6,4-13.6,13.6-13.6
	c17.5,0,34.9,0,52.4,0c9.9,0,13.7,3.9,13.7,14c0,34.8,0.1,69.5-0.1,104.3c0,3.7,0.9,4.7,4.7,4.7c25-0.2,49.9-0.1,74.9-0.1
	c11.1,0,16.5-5.4,16.5-16.5c0-46.9,0.1-93.8-0.1-140.8c0-5.3,1.5-6.3,6.4-6.1c13.6,0.3,27.3,0.1,40.9,0.1h11.2
	c-0.4-0.6-0.9-1.2-1.4-1.8c-24.4-20.3-48.9-40.6-73.4-60.9c-3.2-2.6-4.7-5.2-4.7-9.6c0.2-24.5,0.1-48.9,0.1-73.4
	c0-6.1-2.4-8.6-8.2-8.7c-14.5,0-29,0-43.4,0c-5,0-7.6,2.2-7.9,7c-0.2,4.1-0.1,8.3-0.1,12.5c0,6,0,12.1,0,18.6
	c-18.7-15.5-36.6-30.3-54.4-45.3c-3-2.6-4.7-2.5-7.7,0.1c-53.8,46.1-107.6,92.2-161.5,138.1C72.8,237.3,64.1,244.9,54.6,253z"/>
</svg>
