<svg id="Capa_1" data-name="Capa 1" xmlns="http://www.w3.org/2000/svg" viewBox="0 0 200 200.07"><defs><style>.cls-1{fill:#0166c7;}.cls-2{fill:#fcfdfe;}</style></defs><path class="cls-1" d="M0,100C0,44.94,45,0,100.09,0c55.41.05,100,45,99.91,100.79-.12,55.07-46.07,100.29-101.88,99.26C45,199.07.11,155.58,0,100Zm103.17-8.71c0-3.36-.09-6.28,0-9.19.07-1.53-.41-2-1.94-2-6.28.07-12.56.08-18.84,0-1.63,0-2.07.47-2.06,2.09q.08,37.89,0,75.79c0,1.64.45,2.08,2.07,2.06,6.59-.09,13.18-.11,19.77,0,1.92,0,2.45-.47,2.44-2.42-.09-13.41-.08-26.82,0-40.22,0-12.16,11.58-19.79,22.79-15,6.06,2.58,8.23,7.69,8.27,13.86q.12,20.7,0,41.39c0,2,.53,2.44,2.45,2.41,6.58-.12,13.17-.1,19.76,0,1.63,0,2.08-.44,2.07-2.07-.06-16.66.41-33.34-.17-50-.5-14.06-8.6-25.47-23.18-28.5C123.45,76.78,112.46,80.92,103.17,91.28ZM66.76,120c0-12.56,0-25.11,0-37.66,0-1.71-.39-2.26-2.18-2.23-6.89.1-13.79.08-20.69,0-1.51,0-2,.39-2,1.94q.07,38,0,76c0,1.48.36,2,1.94,2,6.82-.09,13.64-.11,20.46,0,1.88,0,2.49-.42,2.47-2.4C66.72,145.1,66.76,132.55,66.76,120ZM40.24,54.23a14.15,14.15,0,1,0,28.29,0,14.15,14.15,0,1,0-28.29,0Z"/><path class="cls-2" d="M103.17,91.28c9.29-10.36,20.28-14.5,33.4-11.78,14.58,3,22.68,14.44,23.18,28.5.58,16.64.11,33.32.17,50,0,1.63-.44,2.09-2.07,2.07-6.59-.09-13.18-.11-19.76,0-1.92,0-2.46-.45-2.45-2.41q.13-20.7,0-41.39c0-6.17-2.21-11.28-8.27-13.86-11.21-4.77-22.75,2.86-22.79,15,0,13.4,0,26.81,0,40.22,0,2-.52,2.45-2.44,2.42-6.59-.12-13.18-.1-19.77,0-1.62,0-2.08-.42-2.07-2.06q.08-37.91,0-75.79c0-1.62.43-2.11,2.06-2.09,6.28.09,12.56.08,18.84,0,1.53,0,2,.44,1.94,2C103.08,85,103.17,87.92,103.17,91.28Z"/><path class="cls-2" d="M66.76,120c0,12.55,0,25.1,0,37.65,0,2-.59,2.43-2.47,2.4-6.82-.11-13.64-.09-20.46,0-1.58,0-2-.49-1.94-2q0-38,0-76c0-1.55.49-2,2-1.94,6.9.07,13.8.09,20.69,0,1.79,0,2.19.52,2.18,2.23C66.73,94.89,66.76,107.44,66.76,120Z"/><path class="cls-2" d="M40.24,54.23A14.15,14.15,0,1,1,54.38,68.39,14.08,14.08,0,0,1,40.24,54.23Z"/></svg>