<?xml version="1.0" encoding="utf-8"?>
<!-- Generator: Adobe Illustrator 26.3.1, SVG Export Plug-In . SVG Version: 6.00 Build 0)  -->
<svg version="1.1" id="Capa_1" xmlns="http://www.w3.org/2000/svg" xmlns:xlink="http://www.w3.org/1999/xlink" x="0px" y="0px"
	 viewBox="0 0 402.4 296.8" style="enable-background:new 0 0 402.4 296.8;" xml:space="preserve">
<style type="text/css">
	.st0{font-family:'JavaneseText';}
	.st1{font-size:25.4984px;}
</style>
<path d="M305.2,193.6c4,0,8,0,11.9,0c1.7,0,2.3,2.4,3.2,4.2c7.3,13.4,15.8,21.1,26.4,20.4c13-1.1,23.1-14.7,25.5-37.8
	c4.2-39.4-1.5-73.8-18.4-100.7c-7.2-11.6-16.2-15.1-25.6-11.8c-12.8,4.2-21.1,22-22.7,47.1c-0.1,2.4,0.4,5.8-1.3,6.4
	c-2.2,0.7-4.5,0.5-6.7-0.2c-1.1-0.5-0.3-3.6,0.1-5.3c4.3-24.4,13-41.1,26.4-49.3c20.2-12.5,42.4,1.1,53,32.4
	c11.5,34.2,7.2,84.3-9.3,107.8c-17.8,25.3-44.8,22.4-60.4-6.7C306.5,198.2,305.4,196.9,305.2,193.6z"/>
<path d="M75.5,98.2c-1.7-1.3-1.9-4-2.5-6C66.6,71.3,53.6,61,41.2,67c-6.3,3.1-10.7,10.2-12,21.8c-1.3,11.4,0.4,22,6,28
	c4.7,5.1,5.7,11.4,5.1,20.2c-0.1,2.5-0.1,4.9,0,7.5c-14.9-7.8-22.1-28.7-18-52C25.6,73.7,34,65.9,43.8,63.1
	c9.7-2.7,19.6-0.5,28.6,6.4c2.3,1.8,3.2,4,3.1,8.5C75.4,84.8,75.5,91.5,75.5,98.2z"/>
<path d="M109.6,83.1c-2.5,11.4-4.8,21.6-7.1,31.8c-0.3,1.5-0.6,2.9-1,4.4c-0.3,1.1-0.7,2.2-1.4,1.8c-1.1-0.7-0.4-2.2-0.2-3.3
	c2.2-10.2,4.4-20.2,6.7-30.2c1.2-5.3,1.9-10.4,0.3-15.6c-0.8-2.5-0.3-3.8,1.1-5.3c7.1-7.3,7.1-7.3,10.1,5.8
	c3.3,14.4,6.5,28.9,9.9,43.3c0.9,4,0.9,5.5-1.9,5.5c-7.6,0.2-7.6,0.4-10.6-12.7C113.6,100.6,111.7,92.4,109.6,83.1z"/>
<path d="M181,82.9c-2.8,12.4-5.1,23.1-7.5,33.8c-0.4,1.6-0.5,5.1-1.9,4.2c-1.7-1.3-0.1-3.8,0.3-5.5c2.1-10,4.3-19.8,6.5-29.6
	c1-4.4,1.4-8.7,0.1-13.1c-0.9-3.1-0.6-4.5,1.2-6.4c6.8-6.2,6.8-6.4,9.7,6.4c3.3,14.5,6.5,28.9,9.9,43.3c1,4.2,0.7,5.3-1.9,5.5
	c-7.6,0-7.6,0.2-10.4-12.2C185.2,101.1,183.3,92.9,181,82.9z"/>
<path d="M271.9,120.9c-10.5,1.1-10.5,1.1-14.1-14.7c-1.6-7.1-3.2-14.2-5.1-22.2c-2.3,6-3.1,12.4-4.5,18.2
	c-1.3,5.5-2.4,10.9-3.7,16.4c-0.2,1.1-0.4,3.1-1.4,2.5c-1.4-0.9-0.5-2.7-0.2-3.8c2.2-10.2,4.4-20.2,6.7-30.4
	c1.2-5.1,1.8-10,0.2-14.9c-0.8-2.5-0.3-3.8,1.1-5.3c7-7.1,6.9-7.1,10,6C264.5,88.6,268.1,104.4,271.9,120.9z"/>
<path d="M76.9,194.4c-4,16.2-11.3,24.7-20.4,27.8c-12.1,4.2-23.5-1.1-34.2-12c-1-0.9-2.2-1.8-2.3-4.2c0-9.8,0-19.6,0-31.3
	c1.9,6.5,3.2,11.6,4.7,16.4c7.1,22,21.1,33.4,33.4,27.1c5.1-2.5,9.5-7.6,11-16.7C70.6,193.3,72.9,192.4,76.9,194.4z"/>
<path d="M149.9,208.5c1.9-4,2.8-8.2,3.9-12.4c0.4-1.5,0.8-3.3,1.9-2.4s0.1,2.4,0,3.5c-0.3,2.5-0.8,5.3-1.1,7.8
	c-0.8,5.8,0.4,10,3.5,12.7c-3.1,2.9-15.5,3.3-22,0.7c4.5-6.4,1.6-13.1,0.2-19.3c-1-4.5-1-5.8,2.1-6.2c4.8-0.4,8.8,0.4,10.1,10.5
	C148.8,205.6,149.3,207.3,149.9,208.5z"/>
<path d="M230,219.3c-8.1,2.5-15.2,0.4-23,0.7c5.9-9.6,0.1-17.3-0.1-25.6c6.9-2.9,12.5-1.1,13.9,14.7c2.3-3.3,2.8-7.1,3.9-10.4
	c0.6-1.8,0.6-5.6,2.1-4.7c1.8,1.1,0,3.8-0.2,5.6c-0.6,3.6-0.8,7.5-0.7,11.4C226.2,214.5,227.8,216,230,219.3z"/>
<path d="M297.7,219.4h-19.1c5.5-9.3,0-16.7-0.5-25.8c3,0,6,0,9.1,0c1.3,0,1.6,1.6,2,3.3c2.1,8.2,4.2,16.4,9,21.1L297.7,219.4z"/>
<path d="M86.1,219.4H73c-0.5-2.4,0.4-2.7,1-3.3c3.9-3.6,5.7-10.4,7.6-16.9c0.6-2,0.6-6.2,2.2-5.3c1.6,0.9-0.1,4-0.2,6.2
	c-0.2,1.8-0.4,3.5-0.7,5.3C82.3,211.3,83.6,215.4,86.1,219.4z"/>
<text transform="matrix(0.5502 0 0 1 56.2617 148.8719)" class="st0 st1">Sis</text>
<text transform="matrix(0.5502 0 0 1 73.8716 148.8719)" class="st0 st1">t</text>
<text transform="matrix(0.5502 0 0 1 78.7715 148.8719)" class="st0 st1">ema </text>
<text transform="matrix(0.5502 0 0 1 107.3716 148.8719)" class="st0 st1">A</text>
<text transform="matrix(0.5502 0 0 1 117.0015 148.8719)" class="st0 st1">u</text>
<text transform="matrix(0.5502 0 0 1 124.7217 148.8719)" class="st0 st1">t</text>
<text transform="matrix(0.5502 0 0 1 129.6318 148.8719)" class="st0 st1">omatizado de </text>
<text transform="matrix(0.5502 0 0 1 213.752 148.8719)" class="st0 st1">A</text>
<text transform="matrix(0.5502 0 0 1 223.3818 148.8719)" class="st0 st1">u</text>
<text transform="matrix(0.5502 0 0 1 231.1016 148.8719)" class="st0 st1">t</text>
<text transform="matrix(0.5502 0 0 1 236.0117 148.8719)" class="st0 st1">o</text>
<text transform="matrix(0.5502 0 0 1 243.1318 148.8719)" class="st0 st1">g</text>
<text transform="matrix(0.5502 0 0 1 250.0312 148.8719)" class="st0 st1">estión en</text>
<text transform="matrix(0.5502 0 0 1 86.9814 179.4584)" class="st0 st1">A</text>
<text transform="matrix(0.5502 0 0 1 96.6016 179.4584)" class="st0 st1">dminist</text>
<text transform="matrix(0.5502 0 0 1 142.4116 179.4584)" class="st0 st1">r</text>
<text transform="matrix(0.5502 0 0 1 147.6914 179.4584)" class="st0 st1">ación O</text>
<text transform="matrix(0.5502 0 0 1 194.0615 179.4584)" class="st0 st1">rg</text>
<text transform="matrix(0.5502 0 0 1 206.2412 179.4584)" class="st0 st1">anizacional</text>
</svg>
