<svg id="Capa_1" data-name="Capa 1" xmlns="http://www.w3.org/2000/svg" viewBox="0 0 782.72 763.47"><defs><style>.cls-1{fill:#c12d23;}</style></defs><path class="cls-1" d="M505.63,104.81c33-1.27,64.24,2.66,95.58,1.45,3.86-.15,5.38,1.68,4.74,5.59a162.11,162.11,0,0,0-1.86,31.37c.12,4.06,3,6.53,4.08,9.94.43,1.32,2.08.49,3.16.29,12.26-2.3,24.48-1.48,36.71.37a30.37,30.37,0,0,0,6-.07c2.2-.11,2.85-1.2,3.1-3.49,1-8.72,1.2-17.61,5.32-25.72,1.79-3.54,0-7.21-.13-10.83-.14-5.93.47-6.74,6.35-6.84,21-.34,42-.8,63,.06,4,.16,5.6,1.17,5.44,5.49-.44,11.29-.29,11.58-11.86,10.31a180.34,180.34,0,0,0-36.36-.18c-2.74.25-4.29.83-4,4.17.52,5.75.69,11.58-1,17.2-1.48,5,.4,7.94,5,9.77A159.13,159.13,0,0,0,714.25,161c6.91,1.5,11.55,6.33,17.1,9.82,2.12,1.33,1.92,4,2.33,6.33,1.52,8.44-1.74,16.47-1.9,24.78-.31,17.29,2.15,34.51,1.08,51.84-.29,4.61-1.93,7.64-5.87,9.45-6.3,2.89-12.09,7.16-19.44,7.37a6.83,6.83,0,0,0-3.74,1.27c-5.85,4.41-12.75,6.27-19.6,8.21-2.94.83-3,3.08-3.33,5.44-.6,4.13.62,8.22-1.92,12.49-1.89,3.17,2.73,3.07,4.45,2.75,6.48-1.19,13-.8,19.43-.56,7.63.28,15.25,1,22.88,1.48,3.61.2,5.16,1.52,5,5.54-.3,9.55-.07,9.53-9.86,9.75q-27.24.62-54.47,1.29c-9.82.23-9.77,0-10.73-9.57a152.1,152.1,0,0,1,.13-28.39c.3-3.52-1.13-3.42-3.7-3.08a87.13,87.13,0,0,1-37.42-3.06,20.54,20.54,0,0,0-5.33-1.25c-3.76-.09-8.49-3.4-10.92-.5-2.69,3.21-2.62,8.62-2.1,13,.74,6.17,1.56,12-1.43,17.93a11.64,11.64,0,0,0-.44,7.86c1.21,4.51-1.13,5.42-5,5.31-8-.23-16-.33-24-.35-21.16-.07-42.36-1-63.46.12-28.83,1.47-57.62-.52-86.41.33a52.14,52.14,0,0,1-6-.45c-1.45-.12-3.06-.8-2.8-2.24.91-5.17-3.09-10.41.31-15.5a5.48,5.48,0,0,0,.63-3.88c-2-13.92-1.51-27.89-1-41.89.42-11.66-.32-12.79-11.85-12.55-14.36.3-28.64-1.63-42.95-1-15.62.7-31.22,1.8-46.86,1.58-1.72,0-2.89.46-3.1,2.4-.92,8.76-1.23,17.54-1.67,26.33s.5,17.54.5,26.31a81.56,81.56,0,0,0,.82,13c.9,5.65-.44,7-6.36,7.37-2.49.14-5,.17-7.49.14-7.14-.07-7.32-.41-7.21-7.8.13-9.16,1.44-18.25,1.21-27.44a521.21,521.21,0,0,1,1.09-52.88c.33-4.25,1.71-6,6-5.65a283.42,283.42,0,0,0,47.44-.56c28.83-2.84,57.59,1.16,86.32-.91,4.62-.33,6.54,1,6.69,5.89.19,6.48.38,12.89.07,19.41a131.5,131.5,0,0,0,1.78,25.8c.91,5.9-.09,11.62.23,17.42.66,11.65.56,11.37,12,11.87q53.7,2.35,107.43,1.82c5.22-.05,9.88,2.73,15.22,1.87,6-1,10.44-4.86,11-10.84,1.2-11.93.94-23.95,2.5-35.87.53-4-.56-8.27-1.13-12.39-.92-6.63.06-13.21.16-19.79.26-17.43,5.57-34.58,2.58-52.18-.75-4.37-.39-9-.17-13.47.19-4,1-7.92-1.64-11.52-.5-.68-.38-1.94-.3-2.91.37-4.48.78-8.95,1.27-13.42,1.07-9.69-.68-12-10.54-12.37-14.15-.55-28.31-1-42.47-1.06-21.61-.07-43.24.66-64.83.18-9.24-.21-18.6,1.14-27.77-1.14-2.36-.58-3,.62-3.39,2.93a206,206,0,0,0-1.18,52.22c1,9.3-.59,18.63-.72,28,0,2.46-1.44,3.21-3.46,3.3-4.15.17-8.46.93-12.44.16-6.69-1.3-13.26-.88-19.9-.48-23.8,1.44-47.58-1.36-71.38-.1-10.67.56-21.31-.27-31.93-1.33-7-.69-7.93-1.66-7.3-8.61.23-2.46,1.18-4.93-1.68-6.7-.58-.35-.66-1.8-.67-2.74-.23-19.31,2-38.57,1.22-57.89-.12-2.87,1.49-4.35,4.07-4.79a80.06,80.06,0,0,1,16.44-1c2.89.11,4.11,1.54,3.64,4.58-2,13-2.07,26.21-2.58,39.37-.2,5.35-1.18,10.72-1.44,16.14-.14,3.05.44,4.14,3.72,4.07,21.32-.46,42.63-.62,63.91,1.46,10.14,1,20.29-.83,30.45-.91,4.07,0,6.59-2.31,6.17-6.74-.57-6,.59-11.92,1.34-17.86a34.62,34.62,0,0,0-.4-12.42,19.18,19.18,0,0,1-.59-6.93c1.31-9.12,1.27-18.24,1.05-27.42-.18-7.57,1.1-8.66,8.51-8.78C446.64,105.28,477,104.38,505.63,104.81Z"/><path class="cls-1" d="M154.49,108.09c34,.91,67.92-1.88,101.87-3.26,2.2-.09,6.22-1.71,6.31,1.48.11,3.85,3,8.28-1.6,12-8,6.42-17.12,10.8-26.26,15.12a43.68,43.68,0,0,0-15.06,11.27c-2.06,2.44-3.88,5-6.75,6.5-3.1,1.63-2.24,3.33,0,4.73,12.39,7.66,23.33,17.5,36.49,24.06a39,39,0,0,1,11,8.55c2.86,3.11,2.25,7.69,1,11.36-1,3-4.59,2.29-7.11,1.84-8.81-1.59-17.57-.66-26.39-.26-15.63.72-31.29,1.19-47,.63-8.61-.31-10.88,1.82-10.68,10.2.46,19.3.63,38.61,1.47,57.9.44,10.14.84,20.28,1.07,30.43a33,33,0,0,0,1.06,7.4c1.61,6.21,1.46,6.69-5.24,6.67-17.82-.06-35.64-.28-53.47-.46-12.47-.13-24.74,2.77-37.27,2.25-9.31-.39-18.65-.13-28,0-3.31.06-4.88-.83-5.6-4.48-2.76-13.92-2.91-14.42,11-13.74,23.63,1.15,47.29.44,70.91,1.52a114.44,114.44,0,0,0,20.92-1.16c3.33-.47,4.62-2.1,4.86-5.63.81-12.1.85-12.77-11.35-13.27-27.48-1.12-55,0-82.45-.58h-1.5c-16-.19-14.69-2.15-14.62-17.11,0-3.18,1.52-4.28,4.76-4,10.11.8,20.24,1.39,30.37,2,7.08.41,9.76-2.12,9.94-9.13.07-2.77-.09-5.43,1.64-8.09,1.21-1.87,1.86-4.7-1-6.64-1.37-.95-1.06-2.7-1-4.18,0-16-.09-32,.23-48,.27-13.48,1-26.95,1.7-40.42a72.83,72.83,0,0,0-.33-10.95c-.71-6.89-.6-6.65-7.69-6.57-10.81.13-21.63-.17-32.45-.19-1.85,0-3-.62-2.92-2.47q.24-6.48.77-12.94c.17-2.14,1.91-1.94,3.42-1.89C84.54,109.73,119.51,107,154.49,108.09Zm60.11,11.33c-10.23,1.64-21.21,1.14-32.16,1.52-8.81.3-11.19,3.09-10.65,11.83.25,4,.52,8-.56,11.87-.94,3.42.32,3.38,3.26,2.8,16.19-3.2,29.93-11.41,43.06-20.83,2.12-1.53,6.1-3,5.06-5.92C221.74,118.27,217.82,119.91,214.6,119.42Zm-7.2,66.13c5.82-.29,11.64-.52,17.44-.92,1.21-.08,2.94-.08,3.18-1.81.2-1.43-.85-2.48-2-3.26a19.57,19.57,0,0,0-2.63-1.42c-12.5-6.23-25.5-11.31-38.56-16.21-5.12-1.92-8.72-.47-11.25,4.33-2.08,4-2.11,8.34-2.15,12.67,0,2.35,1.79,3,3.73,3.21C185.94,183.07,196.42,186.7,207.4,185.55Z"/><path class="cls-1" d="M491.77,263.12c11.16,0,22.31-.11,33.47.05,4.49.07,6.17-1.68,6.27-6.19.1-5,1.07-9.9,1.57-14.86,1.78-17.59.25-35.15-.58-52.72-.16-3.47-.91-7,1.06-10.24.69-1.15.34-2.16-.25-3.26a16.4,16.4,0,0,1-1.74-10.16c.65-4.44-1.56-5.73-5.33-5.75-4.33,0-8.69-.26-13,.12-19.2,1.71-38.56-.51-57.7,2.48-2.11.33-3.18-.44-3.27-2.58-.19-4.49-.46-9-.58-13.47-.1-3.65,1.5-5.34,5.45-5.24,12.82.35,25.73.69,38.42-1,17.7-2.36,35.4-2,53.14-2.25,5.15-.06,6.88,2,6.76,6.69,0,1,0,2,0,3,.12,9.6-1.21,19,1.71,28.77,3.57,12,1.09,24.75,0,37.13-.69,8-1.69,15.93-.64,23.9,1.2,9-1.79,17.85-1.15,26.85.36,5,.32,10,.43,15,.06,3.06-1.27,4.41-4.54,4.38-20.3-.2-40.6.84-60.9-1.19a180.11,180.11,0,0,0-32.92,0c-3.9.34-5.83-.66-5.79-5.12.13-14.63,0-14.63,14.57-14.63h25.48Z"/><path class="cls-1" d="M782.12,175.4c1.42,11-.13,21.32-.2,31.63-.14,22-.21,44,0,66,.11,13.22-2.82,26.1-3.81,39.19-.18,2.32-1.71,3.17-3.55,3.56a83,83,0,0,1-17.37,1.65c-2.56,0-3.75-1.1-3.2-3.67a46.05,46.05,0,0,1,1.59-6.27c2-5.39,2.51-10.88,2.67-16.62,1-35.42-1.15-70.83.15-106.25.5-13.6-1.41-27.22-2.73-40.8-.92-9.43-1.64-18.87-2.53-28.31-.42-4.45,1.38-6,5.81-5.28,4.91.84,9.83,1.4,14.87.31,4-.87,5.34,1.9,5.59,5.25.49,6.64.92,13.29,1.21,19.94C781.17,149.15,781.64,162.63,782.12,175.4Z"/><path class="cls-1" d="M3.37,248.6c-.17-8.53-1.27-16.95-2.18-25.39-2.47-23-.47-45.92.38-68.85C2,141.59,1,128.78,2.78,116c.67-4.67,2-7.14,6.89-7,1.82.07,3.66-.21,5.49-.25,7.83-.18,9.59,1.51,8.19,9.3-7.49,41.66-3.66,83.55-2.81,125.38.15,7,3.44,13.77,2.05,20.75-1,5.15-1,10.23-1,15.37-.08,8.48.06,16.88,2.24,25.25s-.7,11.17-9.44,10.35C5,314.32,3.64,313.34,3.47,303.49,3.14,285.2,3.37,266.89,3.37,248.6Z"/><path class="cls-1" d="M240.71,269.09c-.45-7-.12-14-.82-21-.35-3.48-1.64-5.22-5.4-5.61a149.13,149.13,0,0,0-22-.37c-6.22.26-12.26-1-18.41-1.38-1.87-.11-4.08-.78-4.11-2.92a113,113,0,0,1,.72-13.38c.18-1.74,2.05-1.43,3.3-1.47,11.47-.37,22.82-2.6,34.35-2,7,.37,13.74-2.52,20.83-2.08,11.66.74,13.74,2.53,12.62,14.33s-1.24,23.6-1.45,35.42c-.25,13.82-1.21,27.63-.37,41.46.2,3.29-1.18,4.59-4.21,4.71-.17,0-.33,0-.5,0-18.78-.38-37.53,1.58-56.33.38-3.65-.24-4.82-1.45-5-5-.55-11.15-.68-11.23,10.22-11.09,5.65.07,11.3.57,17,.8a66.56,66.56,0,0,0,8,0c8.71-.74,11.59-4,11.57-12.87Q240.7,278.08,240.71,269.09Z"/><path class="cls-1" d="M453.09,212.43c0-8.83.16-17.33-.08-25.81-.1-3.39.61-5,4.32-4.63,17.09,1.73,34.25,1,51.38,1,4.16,0,4.54,2.1,4.41,5.35-.48,12.12-2.52,24.19-1.34,36.38.37,3.8,1.44,7.52,1.14,11.41-.3,3.72-1.8,5.68-5.9,5.73-15,.2-30,0-44.93,1.2-1.8.14-3.65-.38-5.47-.33-3.36.09-4.14-1.74-4.2-4.71C452.24,229.37,452.5,220.73,453.09,212.43Z"/><path class="cls-1" d="M327.88,135.94q0-13.71,0-27.43c0-2.52.63-4.24,3.71-3.76,11.61,1.8,23.25.49,34.87.4,5.65,0,11.3.18,16.94.06,2.11,0,2.58.86,2.58,2.63,0,17.46-.12,34.92-.05,52.39,0,3.07-1.66,3.52-4.06,3.63-7.46.35-14.91.79-22.37,1.12-9.08.41-18.17.6-27.24,1.18-4.14.26-5.48-1-5.29-5.28.37-8.3.11-16.63.11-24.94Z"/><path d="M745.59,61.89c1.77-3.92,1.82-8,2.7-11.78,3.52-15.41,7.18-30.79,10.49-46.24.7-3.28,2.17-3.8,5.05-3.81,10.09,0,10.2-.11,10.83,10,1.44,23.27,2.73,46.55,4.16,69.83.18,3,.14,5.64-3.89,4.79-3-.63-8,2.81-8.2-4.32-.43-17.64-2.06-35.24-2.12-52.9,0-.76.29-1.69-.93-2.29-2.64,11.12-5.21,22.18-7.91,33.21-1.73,7.11-3.92,14.13-5.37,21.29-.78,3.85-2.89,4-6,4.13-3.43.15-4.54-1.3-5.26-4.38-4.09-17.49-9-34.78-12.29-52.47a3.72,3.72,0,0,0-1.39-2.37c-.11,1.31-.26,2.63-.32,3.95Q724,55,723,81.43c-.08,2.23-.72,3.46-3.16,3.31a45.7,45.7,0,0,0-5.49,0c-2.4.17-3.25-.75-3.08-3.19q2.82-39.37,5.51-78.75c0-.66,0-1.77.31-1.9,4-1.6,8.14-.58,12.22-.7,2.36-.08,2.18,2.1,2.54,3.63C736.42,23.07,741,42.3,745.59,61.89Z"/><path d="M135.52,671.85c-4.8,20.59-10.58,40.88-15.85,61.31-.55,2.11-.85,4.15-3.93,4.2-2.86,0-3.64-1.38-4.23-3.74-5-20.34-11.14-40.42-15-61.17-1.69,1.33-1.05,3.09-1.12,4.63-.8,18.64-1.65,37.29-2.24,55.94C93,736.84,92,738.17,88,738.07c-4.82-.12-3.25-3.26-3.13-5.54,1.36-24.79,2.85-49.57,4.22-74.35.13-2.27.38-4.24,3.2-3.71s6.81-2.19,8.1,3.07c3.38,13.74,7,27.41,10.51,41.13,1.71,6.73,3.26,13.49,5,20.7,1.4-.88,1.36-2,1.57-3.07,3.93-19.43,9.21-38.54,13.6-57.85,1.31-5.78,5.24-3.68,8.49-4,4.14-.43,3.34,2.83,3.48,5.11q2.25,37.41,4.42,74.84c.12,2,.3,4-2.53,3.49-2.2-.41-5.81,2-6.24-2.57-.3-3.31-.46-6.65-.57-10C137.49,707.52,135.9,689.76,135.52,671.85Z"/><path d="M246.76.12c7.65,0,7.73,0,9.32,7.64,5,24.25,9.91,48.53,15.1,72.74.8,3.73-.29,4.29-3.51,4.19-10.55-.31-8.08,1.49-10.35-8.24-.11-.49-.23-1-.33-1.47-2.62-13.24-2.62-13.18-15.87-12.58-2.56.11-3.89.78-4.31,3.56-.7,4.59-2.21,9.07-2.72,13.67-.45,4.06-2.16,5.23-6.1,5.11-7.83-.23-7.88,0-6.21-7.62Q229.45,42.3,237.15,7.5C238.78.12,238.77.12,246.76.12Zm-.12,15.29h-.75c-1.64,8.93-3.22,17.87-4.92,26.8-2,10.65-2.07,10.54,8.69,10,2.76-.13,3.28-.9,2.79-3.56C250.39,37.62,248.55,26.51,246.64,15.41Z"/><path class="cls-1" d="M54.24,237.1c-12.78-.69-13-.69-12.78-13.67.19-11.49.92-23,1.42-34.45.45-10.32-1.08-20.59-.71-30.93.25-7.05,1.57-8.7,8.58-7.49a33.49,33.49,0,0,0,9.44.63c5-.58,6,1.63,6,6.21-.06,8-1.79,15.82-1.48,23.88.52,13.14.28,26.32.1,39.48,0,3.66,1.35,7.06.8,10.86-.65,4.51-2.67,6-6.88,5.5A39.53,39.53,0,0,0,54.24,237.1Z"/><path d="M474.21,41.56c0-12.5.08-25-.06-37.49,0-3,.73-4.09,3.89-4q13.48.29,27,0c3,0,4.37.71,4,3.88a21.06,21.06,0,0,0,0,4.49c.24,2.69-1,3.45-3.54,3.38-4.66-.13-9.33.08-14-.08-2.81-.09-3.85.92-3.76,3.75.15,5.16.22,10.34,0,15.49-.17,3.49,1.38,4.23,4.45,4.09,4-.19,8,.09,12-.09,2.74-.13,3.75.68,3.78,3.61.07,7.41.23,7.41-7,7.41-13.15,0-13.2,0-13.12,13.34,0,4.31-1.79,9.83.75,12.61C491.33,75,497,72.6,501.44,73a18.87,18.87,0,0,0,2,0c6.88,0,9,3,7.1,9.72-.5,1.74-1.62,1.9-3,1.9-10,0-20-.07-30,0-3.2,0-3.36-1.73-3.35-4.15C474.24,67.55,474.21,54.55,474.21,41.56Z"/><path d="M461.33,444c4.42-1.14,5.68,1.17,6.52,5.1,5.29,24.56,10.85,49.06,16.24,73.6.32,1.43,2.23,4.08-.78,4.2-2.75.1-7,2.61-8.17-2.72-1.37-6.17-2.9-12.3-4.07-18.51-.51-2.68-1.69-3.47-4.32-3.58-14.83-.59-14.82-.65-18,13.8-.61,2.76-1.33,5.49-1.86,8.27-.35,1.86-1,2.84-3.17,3-6.19.58-6.74,0-5.32-6.12,5.51-24,11.1-48,16.47-72C455.71,445.27,456.94,442.83,461.33,444Zm.12,12.87-.93,0c-1.68,8.76-3.29,17.52-5.06,26.25-2.59,12.79-2.64,12.78,10.4,11.51l.5,0c1.95,0,2.6-.81,2.19-2.81C466.14,480.22,463.81,468.56,461.45,456.9Z"/><path d="M6,590.7c0-12,.23-24-.12-35.93-.14-4.78,1.49-5.91,5.93-5.7,7.3.34,14.64.25,22,0,3.38-.1,4.18,1.16,4.18,4.34s-.92,4.15-4,4c-4.65-.18-9.32.1-14-.09-3.26-.13-4.87.63-4.7,4.38.29,6.31.21,12.64,0,19-.1,3.16.81,4.55,4.2,4.35,4.31-.24,8.65.11,13-.1,3.15-.16,3.95,1.16,4,4.08,0,3.09-1.16,4.1-4.13,4-4.48-.16-9,.05-13.47-.06-2.58-.06-3.54,1-3.51,3.53q.12,12.24,0,24.46c0,2.71,1.26,3.4,3.68,3.36,5.49-.09,11,.16,16.47-.08,3.44-.16,3.65,1.61,3.71,4.27.07,2.87-.56,4.24-3.83,4.16q-12.47-.28-25,0c-3.47.08-4.56-1-4.51-4.53C6.07,615.67,6,603.19,6,590.7Z"/><path d="M574.61,416.57C571,420.05,567.25,423,562,423c-6.13-.06-10.49-2.9-12.62-8.7a39.47,39.47,0,0,1-2-13.28c-.1-11.5.13-23-.19-34.49-.11-4.21,1.81-4.44,5.08-4.47s4.76.53,4.68,4.3c-.24,11,0,22-.09,33A34.21,34.21,0,0,0,558,409.2c.91,3.07,2.76,5.42,6.17,5.77s5.82-1.19,7.58-3.89c1.89-2.9,2.29-6.2,2.28-9.58,0-11.67.14-23.34-.07-35-.06-3.53,1-4.64,4.52-4.47,3.09.15,5.25,0,5.2,4.35-.17,17,.08,34,.11,51,0,1.92,1.14,4.68-2.63,4.58-2.74-.08-6,.82-5.94-3.74A6,6,0,0,0,574.61,416.57Z"/><path d="M228.94,732.29c-3.1,2.68-5.74,5.12-9.4,6.07-7,1.81-13.13-1-15.91-7.69a34.71,34.71,0,0,1-2.27-13.22c-.12-11.65.13-23.32-.15-35-.1-4.17,1.77-4.47,5.08-4.49s4.74.52,4.66,4.29c-.23,11.32,0,22.65-.07,34a31.17,31.17,0,0,0,1.2,8.87c.85,2.88,2.52,5.11,5.73,5.59a7.7,7.7,0,0,0,7.78-3.45c2.15-3,2.49-6.47,2.5-10,0-11.49.15-23-.07-34.48-.07-3.7,1-4.9,4.75-4.84,3.55.06,4.95.77,4.92,4.69-.1,17.15.13,34.3.21,51.46,0,1.67.75,4.15-2.31,3.77-2.21-.28-5.74,1.88-6.07-2.75A26.41,26.41,0,0,0,228.94,732.29Z"/><path d="M391.31,578.9c3.75-4.09,7.63-7,13-7,7.71-.1,12.86,4.43,14.42,13,1.36,7.43.69,15,.78,22.44.09,7.16-.19,14.33.1,21.48.18,4.38-2.53,3.72-5.17,3.83s-4.64-.07-4.55-3.88c.25-11.48.07-23,.08-34.47a28.32,28.32,0,0,0-1-8.4c-.93-3.07-2.63-5.42-6-6s-6.12,1-8.08,3.83c-2.2,3.15-2.67,6.78-2.69,10.48-.07,11.16-.25,22.32,0,33.48.09,4.08-1.31,4.92-5.1,5-4.3.13-4.35-2-4.36-5.2,0-16.82-.23-33.64-.35-50.46,0-1.85-1-4.32,2.4-4.2,2.61.09,6.09-1.16,5.87,3.62A10.76,10.76,0,0,0,391.31,578.9Z"/><path d="M96.23,369.11a35.67,35.67,0,0,1,3.23-4c8.15-7.33,19.8-4.25,23.31,6.11a32.12,32.12,0,0,1,1.36,10.35c0,12-.09,24,.1,36,.06,3.51-1.07,4.55-4.54,4.55s-5.06-.7-5-4.67c.25-10.81.14-21.64,0-32.46a48.58,48.58,0,0,0-.84-8.93c-.69-3.45-2.54-6.22-6.43-6.71s-6.42,1.43-8.24,4.51-2.38,6.87-2.38,10.58c0,11.15-.18,22.31.07,33.46.09,4-1.81,4.13-4.84,4.19-3.25.07-4.73-.59-4.71-4.33.06-17-.19-34-.3-50.94,0-2.13-1.07-4.88,3-4.7,3,.12,5.87-.26,5.51,4.12A14.79,14.79,0,0,0,96.23,369.11Z"/><path d="M740.22,392.08c.08-6.55.74-13,3.51-19,3.22-7,8.33-11.8,16.42-11.84s13.31,4.94,16.07,12.12a50.39,50.39,0,0,1,.23,36.63c-3.26,8.77-9.74,13.22-17.62,12.95-7.27-.24-12.93-5.09-16-13.64C740.78,403.71,740.33,397.92,740.22,392.08Zm9.42,0c.21,5.81.23,11.67,2.67,17.12,1.48,3.32,3.47,6.11,7.64,6.14s6.35-2.85,7.45-6.25a54,54,0,0,0,0-33.79c-1.1-3.44-3.31-6.34-7.41-6.42-4.35-.09-6.44,2.95-7.88,6.52C750,380.75,749.79,386.41,749.64,392.08Z"/><path d="M250.09,521.28c-7.32,7.31-13.6,8.7-19.43,5-6.27-4-8.95-13.45-6.12-22s9.52-12.3,17.8-14.15c2.69-.6,7.18,1.27,6.71-4.62-.53-6.79-3.07-10.82-8.16-11.46a15.47,15.47,0,0,0-8.27,1.39c-1.55.68-3.12,1.86-3.81-.83-.45-1.77-2-3.49.47-5.27,10.56-7.62,26.29-1.66,28.59,11.11,1.89,10.56.49,21.26.84,31.89a53.72,53.72,0,0,1,0,9c-.29,2.07,2.44,5.64-2.6,6C252.16,527.48,249.43,526.86,250.09,521.28Zm-.91-16.11a26.55,26.55,0,0,1,0-4c.64-4.22-1.2-5.13-5.07-4.43-8.55,1.54-13.22,8.75-11,17.44.88,3.44,2.58,6.27,6.5,6.63s6.28-1.82,8-4.92C249.52,512.55,249.18,508.82,249.18,505.17Z"/><path d="M537.15,732.28c-7.95,7.7-15.09,8.58-21.06,3-6.6-6.14-7.08-19-.93-26.61,4.5-5.56,10.76-7.69,17.53-8.41,2.7-.29,3.68-1,3.62-3.87-.18-10.11-5.84-14.11-15.55-10.71-2,.69-3.81,2.28-4.93-1.28-.88-2.83-.29-4.15,2.42-5.35,15.06-6.68,27.28.75,27.63,17.11.27,13,.25,26,.43,39,0,1.42.26,3-1.73,2.7-2.22-.33-5.09,1.58-6.56-1.57A20.64,20.64,0,0,1,537.15,732.28Zm-.48-17a21.29,21.29,0,0,1,0-3c.68-4.68-1.3-5.83-5.68-4.85-8.36,1.87-12.48,8.62-10.41,17.37.84,3.56,2.55,6.24,6.43,6.59s6.3-1.71,8-4.9C536.85,722.92,536.71,719.06,536.67,715.23Z"/><path d="M678.62,627.45c-.73.18-1.16.15-1.32.34-4.27,5.14-9.51,7.33-16,4.74-6.79-2.74-8.93-8.61-9.17-15.31-.42-11.47,6.42-19.28,18.53-21.74,3.13-.64,7.8.74,6.9-5.59-1-7-3.69-10.56-9.46-10.73a16.71,16.71,0,0,0-7.23,1.68c-1.37.6-2.86,1.64-3.44-.74-.47-1.88-2.27-3.82.55-5.64,12.84-8.28,28.35-.47,28.94,14.95.43,11.31.15,22.64.19,34,0,1,.33,2.11,0,3-.78,2,2.85,5.62-2.08,6.22C681.24,633.05,678.06,632.57,678.62,627.45ZM677.87,610c0-1,0-2,0-3,0-5.43-.75-6-6.15-4.77-8,1.77-12,8.82-10,17.22.86,3.48,2.51,6.24,6.43,6.62s6.24-1.76,8-4.87C678.18,617.69,677.87,613.82,677.87,610Z"/><path d="M693.06,498.13c-3.5,0-7,.11-10.5,0-2.71-.11-3.59,1.11-3.23,3.63.32,2.14.38,4.33.87,6.43,2.48,10.49,8.83,14.28,19.28,11.59,1.94-.5,3.85-2.16,4.7,1.69.73,3.32-.29,4.51-3.16,5.38-15.28,4.62-27.09-2.38-30-18.1-2.15-11.57-1.72-23,4.38-33.43,3.54-6.08,9-9.44,16.21-8.75s11.13,5.45,13.32,11.91a41.35,41.35,0,0,1,1.69,6.26c2.24,12.93,1.82,13.41-11,13.41Zm-4.57-6.9c10.4,0,12-2.46,7.59-11.8-1.68-3.56-4.07-6.26-8.47-5.32-4.16.89-8.9,9.36-7.91,14.92.82,4.62,4.93,1.12,7.3,2.18A4.12,4.12,0,0,0,688.49,491.23Z"/><path d="M687.26,708.75c-3.16,0-6.34.2-9.48,0-3.73-.3-5.34.9-4.44,4.78.42,1.78.46,3.64.86,5.42,2.2,9.88,8.53,13.76,18.45,11.67,1.81-.38,4.41-3.25,5.58,1.57,1.09,4.46-1.55,4.81-4.27,5.51-14.84,3.79-25.31-2.47-28.68-17.48a51.56,51.56,0,0,1,1.72-29.5,22.06,22.06,0,0,1,6.66-9.78c8.29-6.78,19.19-4.58,24,5,3.13,6.25,3.72,13,3.57,19.93-.05,2.09-.85,3-3,3-3.66-.08-7.32,0-11,0Zm-4.7-6.88c10.36,0,11.41-1.26,8.27-10.16-1.26-3.57-3-6.87-7.33-7.13s-6.34,3-7.86,6.43C671.47,700.43,672.41,701.87,682.56,701.87Z"/><path d="M5,42.56c0-12.65.11-25.31-.06-38C4.91,1.2,5.76,0,9.37,0c9,.12,9-.07,9,8.94,0,22.65,0,45.3,0,68,0,9.17,1.06,7.47-8,7.89-4.16.2-5.41-1.1-5.32-5.28C5.19,67.21,5,54.89,5,42.56Z"/><path d="M304.33,603.37h-8c-6.59,0-6.63,0-5.62,6.8,2,13.45,7.83,17.53,21,14.53,1.62-.37,3.06-1,3.25,1.29.17,1.9,1.93,4-1.21,5.53-10.45,5.17-24.42.86-29-9.85-5.6-13-5.08-26.39.75-39.25,3.53-7.79,10.16-11.38,17.63-10.48,7.76.94,11.24,6.44,13.39,13.14,1.54,4.81,1.79,9.8,1.86,14.82,0,2.58-1,3.59-3.53,3.49C311.33,603.27,307.83,603.37,304.33,603.37Zm-4.7-6.79c10.55,0,11.23-.78,8.4-9.7-1.2-3.79-3-7.32-7.43-7.65-4.67-.33-6.55,3.33-8.06,6.9C288.61,595.39,289.47,596.58,299.63,596.58Z"/><path d="M31.85,520.29c-1,1.3-1.75,2.37-2.61,3.36-5.17,6-13.4,6.21-18.86.49-4-4.14-5.75-9.32-6.53-14.83C2.23,498,2,486.71,7.33,476.12c3.45-6.85,9-9.89,15.2-8.89,3.65.59,6,3.11,9.23,6.63,0-10,0-18.75,0-27.47a11,11,0,0,1,.54-3.86c.41-1.07,1.7-.75,2.68-.73a1.75,1.75,0,0,1,1.88,1.84c0,1,0,2,.06,3L37.27,524c0,1.45.52,3.07-1.87,3.23s-2.5-1.47-2.62-3.21C32.7,522.91,33.19,521.69,31.85,520.29Zm-.05-23c-.3-5.74.74-11.49-1.43-16.92-1.8-4.47-4.16-8.6-9.77-8.61s-8.26,4-9.69,8.59a58.45,58.45,0,0,0,.23,35.31,14.43,14.43,0,0,0,2.72,4.72c3.36,4.12,8.32,4.38,12.25.78A18.23,18.23,0,0,0,30.45,514C32.57,508.5,31.42,502.79,31.8,497.31Z"/><path d="M606.12,496.36c0-6.6-.13-12.1,0-17.59.09-2.92-.72-4.46-3.89-4s-3.34-1.58-3.43-4c-.09-2.72,1.11-3.66,3.57-3.32,3.34.47,3.76-1.32,3.79-4.11,0-2.27-1.42-5.3,1.74-6.63,2.22-.93,4.63-3.22,6.84-2,1.86,1,.7,4,.75,6.09.17,7.69-.6,6.49,6.73,6.62,2.43,0,5-.66,5,3.47s-2.36,3.9-5.14,3.91c-7.21,0-6.53-1-6.56,6.77,0,9.32-.07,18.65,0,28,.08,8,.76,8.87,8.36,10.62,2.53.58,1.82,2.37,2,3.86.28,1.8-.11,3.09-2.21,3.75-8.17,2.57-15.58-2-17-10.53C605.56,509.9,606.41,502.56,606.12,496.36Z"/><path d="M671.19,422.82c-9.3.06-13.94-4.34-14.2-13.44-.33-11.47-.27-22.95-.15-34.43,0-3.59-.1-6.29-4.85-5.67-3.15.42-2.66-2-2.79-4-.15-2.36.79-3.52,3.16-3.14,4.12.66,4.63-1.57,4.51-4.94-.08-2.09-1.06-4.55,1.87-6.11,6.4-3.41,7.32-3,7.34,4.33,0,7.77-.34,6.64,6.69,6.7,2.44,0,4.91-.67,5,3.45.06,4.37-2.56,3.77-5.22,3.79-6.43,0-6.44,0-6.44,6.49,0,9.64-.1,19.29.07,28.94.14,7.52,1,8.52,8.37,10,2,.42,1.77,1.69,1.85,2.9.1,1.73.88,3.86-1.72,4.53A33.64,33.64,0,0,1,671.19,422.82Z"/><path d="M460.52,391.44c0-6.66-.1-12.48,0-18.31.07-2.73-.77-4.14-3.67-3.79s-3.76-.85-3.76-3.68,1.11-3.94,3.83-3.54c3,.43,3.66-1.17,3.61-3.8,0-2.11-.93-4.72.78-6.23,2.07-1.82,5-3.5,7.63-2.85,1.95.47.82,3.49.85,5.35.13,7.4.06,7.45,7.37,7.5,2.46,0,4.46-.19,4.52,3.45.06,3.81-1.94,3.83-4.69,3.83-7.15,0-7.15.1-7.15,7.21,0,9.49-.08,19,.06,28.47.1,7.14,1.15,8.42,8.19,9.82,2.54.51,2,2.24,2.24,3.73.34,1.84-.08,3.09-2.15,3.8a12.71,12.71,0,0,1-17.14-10.34C460.05,404.94,460.68,397.76,460.52,391.44Z"/><path d="M610.7,695.37c0,12.81-.14,25.62.09,38.43.06,3.83-1.61,4.3-4.76,4.22-2.94-.07-4.92,0-4.89-4.07q.25-38.93,0-77.85c0-4.17,2.15-3.84,5-4,3.29-.16,4.73.62,4.67,4.32C610.57,669.42,610.7,682.4,610.7,695.37Z"/><path d="M290.89,391.8c0-6.85-.08-12.67,0-18.49.05-2.59-.51-4.3-3.52-4-2.68.3-3.89-.61-3.85-3.56,0-2.75.81-4.09,3.7-3.68,3.43.49,3.65-1.61,3.7-4.25,0-2.19-1.16-5,1.42-6.39,2.13-1.15,4.68-3.13,6.87-2.23s.84,3.86.89,5.9c.16,8-.59,6.88,6.93,7,2.41,0,4.86-.71,5,3.44.11,4.48-2.58,3.74-5.16,3.77-6.69.08-6.69.07-6.69,6.74,0,9.65-.12,19.3.09,28.94.15,7.3,1.3,8.59,8.18,9.87,2.1.39,2.26,1.56,2.3,3.11.05,1.77.54,3.49-2,4.38-7.89,2.74-15.84-1.75-17.25-10.17C290.31,405.1,291.12,397.91,290.89,391.8Z"/><path d="M174.92,484.5c0,12.81-.14,25.63.09,38.44.06,3.69-1.28,4.48-4.59,4.31-3-.14-5.27.14-5.23-4.28q.31-38.45,0-76.9c0-4.22,2-4.39,5.19-4.46s4.67.8,4.61,4.44C174.8,458.86,174.92,471.68,174.92,484.5Z"/><path d="M307,677.11a15.6,15.6,0,0,1,6.08,1.1c2.32.8,4.37,1.51,3,4.87-1.09,2.71-1.8,4.07-5.21,2.53-4-1.81-8.27-1.61-11,2.74-2.28,3.66-1.19,8,2.76,11.54,3.61,3.2,8,5.39,11.26,9.07,8.46,9.6,5.21,24.57-6.27,28.51a23.18,23.18,0,0,1-14.7-.13c-3.47-1.06-4.42-2.82-2.87-6.26.85-1.88,1.43-2.85,3.54-1.76a17.42,17.42,0,0,0,3.75,1.33c4.15,1,8,.67,10.75-3.09,2.48-3.42,1.91-8.85-1.12-12.55-2.26-2.75-5.38-4.43-8.15-6.55-4.61-3.53-8.45-7.54-8.81-13.82C289.42,684.46,296.48,677,307,677.11Z"/><path d="M203.26,422.85a25.82,25.82,0,0,1-7.86-1.38c-3-.87-4.17-2.32-3-5.84,1.26-3.72,3-2.37,5.19-1.54,6.16,2.28,11.06,1.14,13.36-2.9,2.54-4.45,1.13-10.23-3.65-14.22-2.81-2.34-6-4.27-8.69-6.7-6.69-6-8-14.56-3.61-21.63,4.27-6.85,13-9.26,21.2-6.11,2.84,1.1,3.4,2.4,2.28,5.21-1,2.59-2,3.09-4.72,2-5.26-2-9.47-.76-11.48,2.81-2.18,3.88-1,8.2,3.35,11.84,3.56,3,7.76,5.17,10.86,8.75,5.27,6.08,5.9,13,2.93,20.06S210.31,422.44,203.26,422.85Z"/><path d="M760,738.72a63.09,63.09,0,0,1-6.6-1.49c-3.92-1.29-4.68-4.38-2.16-7.66.57-.74,1-1.14,2-.63a20.27,20.27,0,0,0,3.22,1.35c5.57,1.79,10.33.57,12.48-3.16,2.35-4.09,1.27-9.87-2.89-13.56-3.1-2.75-6.69-5-9.76-7.75-6.62-6-7.74-14.65-3.09-21.69,4.28-6.47,13.22-8.86,21-5.79,2.76,1.09,3.37,2.46,2.28,5.3-1,2.58-1.84,3.18-4.59,2.07-5.22-2.11-9.51-.87-11.52,2.68-2.18,3.82-1,8.28,3.29,11.86,3.69,3.1,8.06,5.35,11.18,9.15,5.1,6.21,5.6,13.12,2.41,20.15S767.8,738.43,760,738.72Z"/><path d="M316.65,528.12c-1.39-.27-3.69-.61-5.93-1.2-3-.77-5.05-1.78-3.72-5.86s3.32-2.35,5.59-1.55c5.87,2,10.76.94,13-2.86,2.57-4.41,1.21-10.32-3.48-14.27-3.05-2.56-6.47-4.71-9.38-7.42-6.46-6-7.43-15-2.64-21.72,4.55-6.41,13.48-8.52,21.06-5.31,3.07,1.3,2.74,2.89,1.85,5.45s-2,2.63-4.39,1.74c-5.41-2-9.41-.95-11.51,2.59-2.33,3.94-1.07,8.56,3.48,12.23,3.48,2.82,7.51,5,10.49,8.41,5.21,6,6.23,12.8,3.12,20S324.92,527.89,316.65,528.12Z"/><path d="M781.17,510.73c-.27,16.6-16.64,20.2-27.37,15.29-3.44-1.58-1.28-3.87-.82-5.91.56-2.51,2-1.77,3.76-1.14,7.37,2.67,12.32,1.64,14.57-2.84,2.53-5,.56-10.52-5.35-15.08-2.9-2.23-6-4.27-8.56-6.85a16.44,16.44,0,0,1-1.48-21.46c4.6-6.14,14.07-8,21.28-4.59,3.12,1.47,1.9,3.23,1.22,5.23s-1.34,2.89-3.92,1.94c-6.11-2.27-10.27-1.05-12.21,2.86-2.07,4.17-.47,8.53,4.53,12.41,3,2.34,6.19,4.52,9,7.1A16,16,0,0,1,781.17,510.73Z"/><path d="M768.52,571.83a14.74,14.74,0,0,1,5.9,1c2.12.92,5.05.85,3.71,4.89-1.17,3.56-2.69,3.66-5.73,2.39-4.08-1.7-7.94-1-10.56,2.9-2.2,3.31-1.24,8.08,2.32,11.2,2.62,2.29,5.61,4.16,8.33,6.34,5,4.05,8.31,9.12,8.09,15.83-.44,13.57-15.54,21.69-27.48,15-3.27-1.83-1.34-3.85-.89-5.91.67-3.1,2.45-1.63,4.1-1,6.76,2.49,11.92,1.44,14.18-2.84,2.47-4.69.6-10.63-4.76-14.79-3.14-2.45-6.61-4.5-9.32-7.5-4.86-5.38-5.87-11.49-3-18S761.62,572,768.52,571.83Z"/><path d="M117.18,571.88a17.46,17.46,0,0,1,6.54,1.17c2.57.83,3.82,1.87,2.66,5.05-1.09,3-2.09,3.34-4.95,2.21-5.13-2-9.44-.68-11.36,3-2.07,3.91-.81,8.31,3.49,11.8,3.09,2.51,6.51,4.66,9.39,7.39,7,6.66,8,17.23,2.55,24.49-4.71,6.26-16.1,8.25-23.8,4.48-3.7-1.81-1.5-4-1-6.19.77-3.34,2.67-1.28,4.11-.76,6.72,2.45,11.81,1.41,14.14-3,2.48-4.65.8-10.25-4.43-14.44-3.36-2.7-7.18-4.83-10-8.16-4.57-5.33-5.48-11.23-2.74-17.64C104.33,575.22,109.87,571.86,117.18,571.88Z"/><path d="M570.7,603.8a32.51,32.51,0,0,0,1.69,11.48c2.73,7.92,7.86,11.09,16.1,9.65,2.13-.37,3.43-.64,3.77,2.05.27,2.17,1.06,4.09-1.91,5.26-7.94,3.16-18.56,0-23.58-7.24-8.13-11.77-7.53-33.52,1.24-44.83,5.2-6.7,14.2-9.75,21.76-7.67,2.77.76,3.38,2.07,2.65,4.67-.66,2.36-.91,4.05-4.43,3.24-6.92-1.6-11.4,1.07-14.46,7.53C571.63,592,570.71,596.85,570.7,603.8Z"/><path d="M441.64,708.41a34.52,34.52,0,0,0,2.43,13.67c2.93,6.81,7.82,9.48,15.16,8.22,2-.34,3.73-1.3,4.08,2.06.26,2.52.77,4.39-2.39,5.4-10,3.23-20.78-1.11-25-11-5.34-12.36-5.31-25,.56-37.19,4.62-9.62,14.59-14.3,23.94-11.93,2.22.56,4.29,1,3.19,4.2-.81,2.36-.67,4.75-4.64,3.86-6.81-1.52-11,.92-14.15,7.16A35.85,35.85,0,0,0,441.64,708.41Z"/><path d="M199.93,603.37a31.92,31.92,0,0,0,1.16,10.28c2.39,9,7.76,12.68,16.95,11.19,2.14-.35,3.12-.12,3.43,2s1.19,4.12-1.8,5.35c-7.46,3.06-18.06.26-23.07-6.36-9-11.84-8.31-35.25,1.31-46.52,5.26-6.16,14.07-8.81,21.22-6.79,3,.84,3.12,2.45,2.47,4.81-.58,2.07-.65,3.89-4.1,3.11-7.42-1.68-12,1.09-15,8.16A33,33,0,0,0,199.93,603.37Z"/><path d="M6,380.58c0-12.49.16-25-.1-37.47-.08-4,1.47-4.64,5-4.64s4.6.86,4.58,4.45q-.21,37.23,0,74.44c0,3.91-1.39,4.63-4.94,4.71-4,.11-4.64-1.53-4.59-5C6.06,404.89,6,392.73,6,380.58Z"/><path d="M19.06,726.28q3-12.48,5.89-25c1.6-6.81,3.21-13.61,4.74-20.42.54-2.38,2.13-2.85,4.12-2.44,2.51.53,1.22,2.45.92,3.62-4.71,18.21-8.32,36.7-14.17,54.6-3,9.25-6.88,18.11-14.44,24.72-1.08.94-2.15,3.55-4.31,1C0,760.24,1,759,2.75,757.51a34.09,34.09,0,0,0,7.55-9.24c3.9-6.7,5.56-13.3,3.1-21.33C9,712.48,5.67,697.66,2,683c-.37-1.45-2.38-3.56.58-4.48,2.67-.82,3.8.77,4.4,3.3,3.34,13.91,6.8,27.8,10.23,41.69.23.93.61,1.82.92,2.73Z"/><path d="M541.58,475.06c2.51-3.73,5.3-7.26,10-8.3,1.55-.35,3.89-1.19,4,1.26.07,2.65,2,7.09-1.45,7.81-10,2.05-11.91,9.18-12.18,17.42-.31,9.47-.22,19-.05,28.46.07,3.66-.23,5.71-4.91,5.71s-4.6-2.17-4.61-5.5c0-16.48-.22-33-.27-49.43,0-2.2-1.36-5.21,3.06-5.2,3.43,0,6,.25,5.48,4.65A3.14,3.14,0,0,0,541.58,475.06Z"/><path d="M104.37,495.36h-5c-9.33,0-9.37,0-8,9.47A46.74,46.74,0,0,0,93,512.14c3,9.63,9,12.91,18.79,10.39,1.35-.34,2.79-1.64,3.67.67s-1,2.87-2.47,3.47c-9.65,3.92-19.87.29-23.76-9.39A50.93,50.93,0,0,1,90,476c2.66-5.86,7.36-9.47,14.27-8.9,6.65.55,9.71,5.17,11.71,10.8,1.57,4.44,2,9.08,2.17,13.77.13,2.89-1.06,3.82-3.8,3.7C111,495.25,107.7,495.36,104.37,495.36Zm-2.92-4.23c2.67,0,5.33,0,8,0,1.33,0,2.58.06,3-1.79,1-4.07-2.17-13.38-5.63-16s-6.83-2.27-9.89.71c-2.6,2.52-3.79,5.83-4.71,9.22-2.09,7.77-2,7.83,5.73,7.83Z"/><path d="M370.21,707.55c0-8.32.21-16.65-.09-25-.15-4,1.47-4.67,5-4.61,3.22,0,4.75.6,4.71,4.34-.18,17.14-.23,34.28,0,51.42.06,4.4-2.19,4.12-5.22,4.29-3.56.21-4.55-1.07-4.47-4.52C370.35,724.86,370.21,716.2,370.21,707.55Z"/><path d="M496.37,603c0,8.64-.17,17.28.08,25.91.12,3.91-2.05,3.81-4.71,3.72-2.46-.09-4.9.52-4.85-3.56q.25-26.41,0-52.81c0-4.22,2.62-3.27,5-3.4,2.67-.14,4.75-.17,4.62,3.74C496.17,585.38,496.37,594.19,496.37,603Z"/><path d="M387.35,392c0,8.65-.18,17.31.08,26,.11,4-2,4.08-5,4.1s-4.59-.37-4.55-4q.24-26,0-51.93c0-3.5,1.42-4.16,4.46-4,2.79.13,5.2-.28,5.07,3.94C387.16,374.63,387.35,383.29,387.35,392Z"/><path d="M296.79,564.55c2.91-5.13,5.46-9.73,8.11-14.27,2.41-4.12,6.35-1,9.63-2.46C312.05,556.21,302.81,565.09,296.79,564.55Z"/><path d="M377.06,346.7c.08-3.56,1.8-6.14,5.58-6.14,3.49,0,5.3,2.32,5.41,5.89.11,3.84-1.75,6.17-5.52,6.22C379,352.71,377.26,350.32,377.06,346.7Z"/><path d="M497,557.3c-.15,3.59-1.79,5.83-5.45,5.85-4,0-5.63-2.45-5.54-6.13.07-3.46,1.83-5.81,5.43-5.84C495.41,551.14,496.93,553.74,497,557.3Z"/><path d="M374.92,668.46c-3.83-.12-5.47-2.39-5.5-5.79,0-3.59,1.6-6.25,5.56-6.19s5.54,2.75,5.46,6.32S378.48,668.33,374.92,668.46Z"/></svg>