<svg id="Capa_1" data-name="Capa 1" xmlns="http://www.w3.org/2000/svg" viewBox="0 0 200 200"><defs><style>.cls-1{fill:#b42119;}</style></defs><path class="cls-1" d="M0,102.22V93.89A1.82,1.82,0,0,0,.57,92.4,96.4,96.4,0,0,1,22.15,37.61,97.73,97.73,0,0,1,80.32,2.2c4.48-.91,9-1.48,13.57-2.2h8.33c.6.63,1.38.42,2.09.42a78.39,78.39,0,0,1,13.75,1.41c45,8.35,78.58,46,81.46,91.36.1,1.53-.4,3.14.48,4.59v8.33c-.67.55-.54,1.32-.59,2a86.59,86.59,0,0,1-6.27,27.71c-14.42,34.63-40,55.62-77,62.63-3.33.63-6.78.33-10,1.5H97.78c-.42-.49-1-.42-1.54-.42a89.46,89.46,0,0,1-18.64-2.33C37.66,188.59,5.72,153.39,1,112.88.58,109.33,1,105.71,0,102.22ZM99.93,54.85h0c-12.46,0-24.91.08-37.37-.06-2.64,0-3.18.85-3.14,3.28.14,8.15.18,16.3,0,24.44a5.49,5.49,0,0,0,2.78,5.18q13.67,9.5,27.2,19.18c1.45,1,2.32,1.13,3.77,0,4.71-3.49,9.21-3.54,13.78-.09,1.49,1.13,2.45,1,3.83,0q14-10,28.07-19.89a3.72,3.72,0,0,0,1.73-3.46c-.07-8.51-.12-17,0-25.55,0-2.37-.49-3.15-3-3.12C125,54.93,112.47,54.85,99.93,54.85Zm-58.6,95.44H157.9c0-.83-.56-1-1-1.35q-26.28-19.73-52.57-39.42c-3-2.23-6-2-9.17.3L45.3,147.24C44.16,148.1,43,149,41.33,150.29ZM41.1,76.86v69a4.59,4.59,0,0,0,1-.37q22.53-16.86,45.07-33.71c1.72-1.27,1.06-1.77-.25-2.69-7.8-5.45-15.55-11-23.34-16.47C56.17,87.44,48.77,82.25,41.1,76.86Zm117.81,69.39V77a7.33,7.33,0,0,0-1,.45C143,88.05,128.08,98.65,113.07,109.12c-2.28,1.58-.91,2.13.32,3q15.87,11.86,31.72,23.76C149.58,139.29,154.07,142.63,158.91,146.25ZM124.77,51.44l.18-.54c-7-5.26-14-10.57-21-15.75-2.65-1.94-5.63-1.67-8.49.47Q85.86,42.75,76.34,50c-.45.34-1.24.52-1,1.48ZM56,65.21c-4,3-7.68,5.76-11.37,8.45-.94.69-.7,1.08.07,1.62,3.67,2.58,7.32,5.17,11.3,8Zm88,0V83.3l11.31-8c.57-.4,1.13-.78.24-1.44Z"/><path class="cls-1" d="M104.11,86.66a36.72,36.72,0,0,1-3.7,3.28c-4.68,3.12-9.92.72-10.48-4.71-1-9.58,9.31-17.38,18.26-13.87,1.34.53,1.27,1.34,1.06,2.4-.63,3.17-1.33,6.33-1.81,9.52-.28,1.83-1.08,4.26,1.32,5.1s3.86-1.11,5-3c3-5,2-13.23-2-17.34-4.34-4.48-12.07-5.26-18.26-1.84-8.17,4.52-11.61,17.31-6.8,25.32,3.67,6.12,11,8.37,18.81,5.87.89-.29,2.22-1.84,2.84.38.53,1.9-1.17,1.83-2.14,2.18-7.44,2.73-15.87.94-20.5-4.29-5.11-5.75-5.87-15.21-2.06-22.93,5.82-11.81,19.73-13.54,27.64-9s10.2,17.69,4,24.51a8.8,8.8,0,0,1-8,2.84C104.82,90.82,104.6,88.87,104.11,86.66Zm-10.32-3c-.13,1.88.26,3.55,2.17,4.36s3.42.07,4.84-1.12a10,10,0,0,0,2.48-3.29c1.21-2.35,1.27-5,1.91-7.47.5-1.92-.32-2.24-1.9-2.31C98.27,73.62,93.85,78.16,93.79,83.67Z"/></svg>