<svg id="Capa_1" data-name="Capa 1" xmlns="http://www.w3.org/2000/svg" xmlns:xlink="http://www.w3.org/1999/xlink" viewBox="0 0 200 200.03"><defs><style>.cls-1{fill:url(#Degradado_sin_nombre_16);}</style><linearGradient id="Degradado_sin_nombre_16" x1="29.24" y1="170.75" x2="170.7" y2="29.3" gradientUnits="userSpaceOnUse"><stop offset="0" stop-color="#5a2a6d"/><stop offset="1" stop-color="#b83fea"/></linearGradient></defs><path class="cls-1" d="M104.2,200H95.76a1.08,1.08,0,0,0-.74-.15,92,92,0,0,1-14.43-1.72A98.16,98.16,0,0,1,50,186.68,100.1,100.1,0,0,1,.58,89.14a97.28,97.28,0,0,1,8.3-30.46A99.88,99.88,0,0,1,95.07.13a101,101,0,0,1,19,.86A97.66,97.66,0,0,1,140,8.35a99.64,99.64,0,0,1,37.39,28.39A98.36,98.36,0,0,1,192,60.85a96.74,96.74,0,0,1,7.34,28.21c.23,2.24.42,4.49.63,6.73v8.44a3.64,3.64,0,0,0-.2,1.53,87.81,87.81,0,0,1-1.67,13.63,100.3,100.3,0,0,1-63,74.29,97.92,97.92,0,0,1-26.6,6A22.08,22.08,0,0,0,104.2,200Zm12.67-52.17c6.08,4.44,8.06,10.48,8,17.42v14.93c.31-.08.53-.12.73-.19A84.22,84.22,0,0,0,183,112.69a84.09,84.09,0,0,0-20.64-68.88A83.79,83.79,0,0,0,84.17,17.52a81.11,81.11,0,0,0-32.78,14C31.82,45.69,20.2,64.84,16.73,88.77a80.85,80.85,0,0,0,1,28.25,84.15,84.15,0,0,0,57,63.13c1.32.42,1.3.42,1.32-1,.06-5.51-.21-11,.14-16.55a18.63,18.63,0,0,1,5.8-13c.57-.54,1.19-1,1.93-1.67-3.21-.34-6.2-.76-9.16-1.34a69.36,69.36,0,0,1-8.83-2.5C54.09,140,45.93,132.3,42,120.38a63.23,63.23,0,0,1-2.92-19.33c-.1-9.8,2.73-18.5,9.3-25.86a1.25,1.25,0,0,0,.29-1.48,28.87,28.87,0,0,1-1.76-9.1A39.92,39.92,0,0,1,49.52,50a1.5,1.5,0,0,1,1.61-1.16,25.43,25.43,0,0,1,9,1.47,68.94,68.94,0,0,1,15.1,7.89,2.62,2.62,0,0,0,2.46.42,55.66,55.66,0,0,1,7.34-1.66,92.3,92.3,0,0,1,38.4,1.69,2.37,2.37,0,0,0,2.14-.39,65.26,65.26,0,0,1,16.49-8.29c2.59-.82,5.17-1.51,7.94-1a1.27,1.27,0,0,1,1.23,1c.32,1.06.73,2.09,1.05,3.15a32.17,32.17,0,0,1,.06,20.07,2.27,2.27,0,0,0,.55,2.6,33.32,33.32,0,0,1,7.73,15c2,9.12,1.28,18.18-1.06,27.13-3.28,12.5-11,21-23.08,25.63A72.31,72.31,0,0,1,116.87,147.86Z"/></svg>