<?xml version="1.0" encoding="utf-8"?>
<!-- Generator: Adobe Illustrator 26.3.1, SVG Export Plug-In . SVG Version: 6.00 Build 0)  -->
<svg version="1.1" id="Capa_1" xmlns="http://www.w3.org/2000/svg" xmlns:xlink="http://www.w3.org/1999/xlink" x="0px" y="0px"
	 viewBox="0 0 402.4 296.8" style="enable-background:new 0 0 402.4 296.8;" xml:space="preserve">
<style type="text/css">
	.st0{font-family:'JavaneseText';}
	.st1{font-size:14.03px;}
</style>
<path d="M305.2,169c4,0,8,0,11.9,0c1.7,0,2.3,1.3,3.2,2.3c7.3,7.4,15.8,11.6,26.4,11.2c13-0.6,23.1-8.1,25.5-20.8
	c4.2-21.7-1.5-40.6-18.4-55.4c-7.2-6.4-16.2-8.3-25.6-6.5c-12.8,2.3-21.1,12.1-22.7,25.9c-0.1,1.3,0.4,3.2-1.3,3.5
	c-2.2,0.4-4.5,0.3-6.7-0.1c-1.1-0.3-0.3-2,0.1-2.9c4.3-13.4,13-22.6,26.4-27.1c20.2-6.9,42.4,0.6,53,17.8
	c11.5,18.8,7.2,46.4-9.3,59.3c-17.8,13.9-44.8,12.3-60.4-3.7C306.5,171.5,305.4,170.8,305.2,169z"/>
<path d="M75.5,116.5c-1.7-0.7-1.9-2.2-2.5-3.3C66.6,101.7,53.6,96,41.2,99.3c-6.3,1.7-10.7,5.6-12,12c-1.3,6.3,0.4,12.1,6,15.4
	c4.7,2.8,5.7,6.3,5.1,11.1c-0.1,1.4-0.1,2.7,0,4.1c-14.9-4.3-22.1-15.8-18-28.6C25.6,103,34,98.7,43.8,97.2
	c9.7-1.5,19.6-0.3,28.6,3.5c2.3,1,3.2,2.2,3.1,4.7C75.4,109.1,75.5,112.8,75.5,116.5z"/>
<path d="M109.6,108.2c-2.5,6.3-4.8,11.9-7.1,17.5c-0.3,0.8-0.6,1.6-1,2.4c-0.3,0.6-0.7,1.2-1.4,1c-1.1-0.4-0.4-1.2-0.2-1.8
	c2.2-5.6,4.4-11.1,6.7-16.6c1.2-2.9,1.9-5.7,0.3-8.6c-0.8-1.4-0.3-2.1,1.1-2.9c7.1-4,7.1-4,10.1,3.2c3.3,7.9,6.5,15.9,9.9,23.8
	c0.9,2.2,0.9,3-1.9,3c-7.6,0.1-7.6,0.2-10.6-7C113.6,117.8,111.7,113.3,109.6,108.2z"/>
<path d="M181,108.1c-2.8,6.8-5.1,12.7-7.5,18.6c-0.4,0.9-0.5,2.8-1.9,2.3c-1.7-0.7-0.1-2.1,0.3-3c2.1-5.5,4.3-10.9,6.5-16.3
	c1-2.4,1.4-4.8,0.1-7.2c-0.9-1.7-0.6-2.5,1.2-3.5c6.8-3.4,6.8-3.5,9.7,3.5c3.3,8,6.5,15.9,9.9,23.8c1,2.3,0.7,2.9-1.9,3
	c-7.6,0-7.6,0.1-10.4-6.7C185.2,118.1,183.3,113.6,181,108.1z"/>
<path d="M271.9,129c-10.5,0.6-10.5,0.6-14.1-8.1c-1.6-3.9-3.2-7.8-5.1-12.2c-2.3,3.3-3.1,6.8-4.5,10c-1.3,3-2.4,6-3.7,9
	c-0.2,0.6-0.4,1.7-1.4,1.4c-1.4-0.5-0.5-1.5-0.2-2.1c2.2-5.6,4.4-11.1,6.7-16.7c1.2-2.8,1.8-5.5,0.2-8.2c-0.8-1.4-0.3-2.1,1.1-2.9
	c7-3.9,6.9-3.9,10,3.3C264.5,111.2,268.1,119.9,271.9,129z"/>
<path d="M76.9,169.4c-4,8.9-11.3,13.6-20.4,15.3c-12.1,2.3-23.5-0.6-34.2-6.6c-1-0.5-2.2-1-2.3-2.3c0-5.4,0-10.8,0-17.2
	c1.9,3.6,3.2,6.4,4.7,9c7.1,12.1,21.1,18.4,33.4,14.9c5.1-1.4,9.5-4.2,11-9.2C70.6,168.8,72.9,168.3,76.9,169.4z"/>
<path d="M149.9,177.2c1.9-2.2,2.8-4.5,3.9-6.8c0.4-0.8,0.8-1.8,1.9-1.3s0.1,1.3,0,1.9c-0.3,1.4-0.8,2.9-1.1,4.3
	c-0.8,3.2,0.4,5.5,3.5,7c-3.1,1.6-15.5,1.8-22,0.4c4.5-3.5,1.6-7.2,0.2-10.6c-1-2.5-1-3.2,2.1-3.4c4.8-0.2,8.8,0.2,10.1,5.8
	C148.8,175.6,149.3,176.5,149.9,177.2z"/>
<path d="M230,183.1c-8.1,1.4-15.2,0.2-23,0.4c5.9-5.3,0.1-9.5-0.1-14.1c6.9-1.6,12.5-0.6,13.9,8.1c2.3-1.8,2.8-3.9,3.9-5.7
	c0.6-1,0.6-3.1,2.1-2.6c1.8,0.6,0,2.1-0.2,3.1c-0.6,2-0.8,4.1-0.7,6.3C226.2,180.5,227.8,181.3,230,183.1z"/>
<path d="M297.7,183.2h-19.1c5.5-5.1,0-9.2-0.5-14.2c3,0,6,0,9.1,0c1.3,0,1.6,0.9,2,1.8c2.1,4.5,4.2,9,9,11.6L297.7,183.2z"/>
<path d="M86.1,183.2H73c-0.5-1.3,0.4-1.5,1-1.8c3.9-2,5.7-5.7,7.6-9.3c0.6-1.1,0.6-3.4,2.2-2.9s-0.1,2.2-0.2,3.4
	c-0.2,1-0.4,1.9-0.7,2.9C82.3,178.7,83.6,181,86.1,183.2z"/>
<text transform="matrix(1 0 0 1 56.2616 144.3732)" class="st0 st1">Sis</text>
<text transform="matrix(1 0 0 1 73.8716 144.3732)" class="st0 st1">t</text>
<text transform="matrix(1 0 0 1 78.7716 144.3732)" class="st0 st1">ema </text>
<text transform="matrix(1 0 0 1 107.3716 144.3732)" class="st0 st1">A</text>
<text transform="matrix(1 0 0 1 117.0016 144.3732)" class="st0 st1">u</text>
<text transform="matrix(1 0 0 1 124.7216 144.3732)" class="st0 st1">t</text>
<text transform="matrix(1 0 0 1 129.6316 144.3732)" class="st0 st1">omatizado de </text>
<text transform="matrix(1 0 0 1 213.7516 144.3732)" class="st0 st1">A</text>
<text transform="matrix(1 0 0 1 223.3816 144.3732)" class="st0 st1">u</text>
<text transform="matrix(1 0 0 1 231.1016 144.3732)" class="st0 st1">t</text>
<text transform="matrix(1 0 0 1 236.0116 144.3732)" class="st0 st1">o</text>
<text transform="matrix(1 0 0 1 243.1316 144.3732)" class="st0 st1">g</text>
<text transform="matrix(1 0 0 1 250.0316 144.3732)" class="st0 st1">estión en</text>
<text transform="matrix(1 0 0 1 86.9816 161.2032)" class="st0 st1">A</text>
<text transform="matrix(1 0 0 1 96.6016 161.2032)" class="st0 st1">dminist</text>
<text transform="matrix(1 0 0 1 142.4116 161.2032)" class="st0 st1">r</text>
<text transform="matrix(1 0 0 1 147.6916 161.2032)" class="st0 st1">ación O</text>
<text transform="matrix(1 0 0 1 194.0616 161.2032)" class="st0 st1">rg</text>
<text transform="matrix(1 0 0 1 206.2416 161.2032)" class="st0 st1">anizacional</text>
</svg>
