<svg id="Capa_1" data-name="Capa 1" xmlns="http://www.w3.org/2000/svg" viewBox="0 0 334.31 678.98"><defs><style>.cls-1{fill:#5b5b5b;}</style></defs><path class="cls-1" d="M169.32,173.74c-44.56-.5-82.5-14.31-118.19-35.35A304.37,304.37,0,0,1,2,102.52C.29,101-1,99.87,1.09,97.34c29.2-34.86,62.58-64.5,104.44-83.46C154.7-8.39,202.07-2.9,248,23.49c32.74,18.82,60.19,43.8,84.37,72.58,2.12,2.51,2.87,4.22-.19,6.86-38.2,32.88-80.6,57.59-130.67,67.45-5.54,1.09-11.17,1.88-16.79,2.44C178.75,173.41,172.74,173.55,169.32,173.74ZM239.8,87.17c.19-39.64-32.26-72.65-71.71-73C128,13.89,94.76,46.54,94.64,86.46a73,73,0,0,0,72.75,73C206.87,159.45,239.61,126.77,239.8,87.17Z"/><path class="cls-1" d="M180.23,41.16c-12.29,13.19-13.44,25.9-3.56,35.93s22.16,9,36-2.94c6.1,10.62,3.07,35.86-15.47,50.48a48.31,48.31,0,0,1-62.42-2.22c-17.08-15.34-20.72-41.61-8.45-61.11C137.9,42.87,162.38,33.63,180.23,41.16Z"/></svg>