<svg id="Capa_1" data-name="Capa 1" xmlns="http://www.w3.org/2000/svg" viewBox="0 0 334.31 678.98"><defs><style>.cls-1{fill:#5b5b5b;}</style></defs><path class="cls-1" d="M86.33,497.65c-1.07-1.16-1.92-2.15-2.84-3.07C72.9,484,62.36,473.3,51.63,462.83c-2.52-2.45-3.23-4-.18-6.59a109.13,109.13,0,0,0,10.6-10.58c2.3-2.59,3.75-2.62,6.24-.08,12.59,12.85,25.41,25.48,38.07,38.27,1.94,1.95,3.48,2.85,6.44,1.64,43.86-17.89,86.31-13.29,127.56,8.41,36.54,19.22,66.5,46.31,92.8,77.79,2.4,2.87.58,3.92-1.19,5.49a311.5,311.5,0,0,1-74.8,49.31c-5.5,2.6-5.51,2.57-1.24,6.84,9,8.94,17.85,18,26.91,26.81,2.24,2.18,2.73,3.6.12,5.91a147.18,147.18,0,0,0-11.33,11.29c-2.13,2.35-3.43,2.06-5.54-.08-11.92-12.11-24-24.07-36-36.11-1.67-1.67-3-3-5.93-2.08C170.84,655.94,120,648,70.77,623.6A324.33,324.33,0,0,1,2.94,578.1c-3.16-2.74-3.63-4.57-.76-8C25.48,542.6,51.79,518.57,82.83,500,83.94,499.28,85,498.53,86.33,497.65Zm126.39,51c.23.23.57.4.68.68a10.17,10.17,0,0,1,.61,1.89,44.26,44.26,0,0,1-3.86,31c-1.39,2.67-1.3,4.33,1,6.39,3.83,3.45,7.35,7.24,11,10.89,4,4,4,4,7.07-1,23.09-37.78,6.29-88-35.08-104.46-22.56-9-44.32-6.72-65.15,5.58-2.92,1.73-4.45,3-.95,5.94a85.43,85.43,0,0,1,10.59,10.59c2.77,3.3,5.06,3.25,8.83,1.43,10.35-5,21.19-6.11,32.48-2.29-12.1,16.05-13,26.75-3.26,36.43S196.9,560.42,212.72,548.65ZM165.1,633.92c15.85-.29,28.8-3.94,40.68-11.41,2.43-1.53,3.54-2.5.79-5-4.45-4-8.63-8.33-12.73-12.71-1.68-1.78-2.88-1.8-5.08-.76-19.89,9.42-41.09,6-55.77-8.76s-18.15-36-8.65-55.73c1-2.18,1-3.4-.79-5.08a143.14,143.14,0,0,1-12-12c-2.94-3.47-4.3-2.56-6.22.77-13.94,24.17-15.06,48.84-1.45,73.22S139.25,632.7,165.1,633.92Z"/></svg>