<svg id="Capa_1" data-name="Capa 1" xmlns="http://www.w3.org/2000/svg" xmlns:xlink="http://www.w3.org/1999/xlink" viewBox="0 0 199 199.9"><defs><style>.cls-1{fill:url(#Degradado_sin_nombre);}.cls-2{fill:url(#Degradado_sin_nombre_2);}.cls-3{fill:#fff;fill-rule:evenodd;}</style><linearGradient id="Degradado_sin_nombre" x1="-201.02" y1="732.9" x2="-200.52" y2="732.9" gradientTransform="translate(-281716.25 -77099.55) rotate(-90) scale(384.52)" gradientUnits="userSpaceOnUse"><stop offset="0" stop-color="#20b038"/><stop offset="1" stop-color="#60d66a"/></linearGradient><linearGradient id="Degradado_sin_nombre_2" x1="-200.95" y1="732.89" x2="-200.46" y2="732.89" gradientTransform="translate(-291816.84 -79843.89) rotate(-90) scale(398.31)" gradientUnits="userSpaceOnUse"><stop offset="0" stop-color="#f9f9f9"/><stop offset="1" stop-color="#fff"/></linearGradient></defs><g id="g120"><g id="g122"><g id="g128"><g id="g130"><path id="path138" class="cls-1" d="M4.25,99.08A95.41,95.41,0,0,0,17,146.84h0L3.44,196.43l50.75-13.29a95.49,95.49,0,0,0,45.7,11.63h0a95.78,95.78,0,0,0,95.65-95.62h0a95,95,0,0,0-28-67.66h0a95,95,0,0,0-67.66-28h0A95.78,95.78,0,0,0,4.25,99.08m95.66,95.69h0m0,0h0"/></g></g></g></g><g id="g190"><g id="g192"><g id="g198"><g id="g200"><path id="path208" class="cls-2" d="M.84,99a98.68,98.68,0,0,0,13.22,49.52h0L0,199.9l52.53-13.79a98.76,98.76,0,0,0,47.35,12.06h0a99.21,99.21,0,0,0,99.12-99h0A98.54,98.54,0,0,0,170,29h0A98.54,98.54,0,0,0,99.92,0h0A99.19,99.19,0,0,0,.84,99M32.11,146l-2-3.12A82.08,82.08,0,0,1,17.53,99.08h0A82.46,82.46,0,0,1,99.92,16.76h0A81.8,81.8,0,0,1,158.2,40.87h0a81.89,81.89,0,0,1,24.1,58.25h0A82.46,82.46,0,0,1,100,181.45h0A82.32,82.32,0,0,1,58,170h0l-3-1.79-31.17,8.18Zm67.81,52.19h0m0,0h0"/></g></g></g></g><g id="g210"><g id="g212"><g id="g260"><path id="path262" class="cls-3" d="M75.15,57.64c-1.85-4.12-3.81-4.21-5.57-4.28-1.44-.06-3.09-.06-4.75-.06a9.09,9.09,0,0,0-6.59,3.1c-2.27,2.47-8.67,8.46-8.67,20.65s8.88,24,10.13,25.6S76.82,130.1,102,140c20.89,8.23,25.17,6.6,29.71,6.19s14.64-6,16.7-11.78,2.07-10.73,1.46-11.77-2.27-1.65-4.75-2.88-14.65-7.23-16.91-8.05-3.92-1.25-5.57,1.23-6.39,8-7.84,9.7-2.88,1.86-5.36.63S99,119.45,89.53,111A74.38,74.38,0,0,1,75.72,93.87c-1.45-2.48-.16-3.82,1.08-5.06s2.48-2.88,3.72-4.32A17.66,17.66,0,0,0,83,80.36,4.55,4.55,0,0,0,82.78,76c-.61-1.25-5.43-13.48-7.63-18.38"/></g></g></g></svg>